<svg width="29" height="24" viewBox="0 0 29 24" fill="none" xmlns="http://www.w3.org/2000/svg">
<path d="M28.4999 5.44376H21.0999C20.9014 5.44377 20.7058 5.39574 20.5299 5.30376L13.2799 1.22376L13.0599 1.10376C12.7776 0.891885 12.4475 0.752775 12.0987 0.698711C11.7499 0.644646 11.3931 0.677291 11.0599 0.793761C9.42992 1.22376 7.77992 1.57376 6.13992 1.95376C5.60968 2.03833 5.06646 1.93956 4.59993 1.67376C4.24993 1.51376 3.90993 1.32376 3.54993 1.14376L0.919922 6.61376L2.40993 7.24376C3.52993 7.70376 4.63993 8.15376 5.73993 8.63376C6.33855 8.8381 6.95975 8.96906 7.58992 9.02376C8.40992 9.16376 9.23992 9.27376 10.0599 9.39376L12.7999 9.76376L14.7999 10.0638C14.9199 10.0908 15.0444 10.0904 15.1642 10.0628C15.2841 10.0351 15.3961 9.98089 15.4922 9.90407C15.5882 9.82725 15.6657 9.72981 15.719 9.61898C15.7723 9.50814 15.7999 9.38673 15.7999 9.26376C15.8372 8.92097 15.7591 8.57555 15.5779 8.28214C15.3968 7.98873 15.1231 7.76409 14.7999 7.64376C14.213 7.39816 13.6119 7.18778 12.9999 7.01376L10.0599 6.12376C9.83992 6.06376 9.80992 5.96376 9.86992 5.76376C9.90155 5.65029 9.95847 5.54546 10.0364 5.45713C10.1143 5.3688 10.2113 5.29927 10.3199 5.25376C10.8099 5.07376 11.3199 4.87376 11.7899 4.72376C11.9828 4.70141 12.1782 4.7254 12.3599 4.79376C13.1699 4.98376 13.9699 5.19376 14.7799 5.43376H10.7799C10.6464 5.41325 10.5101 5.44553 10.3999 5.52376C10.3444 5.55938 10.2971 5.60628 10.2609 5.66141C10.2247 5.71655 10.2005 5.77867 10.1899 5.84376C10.865 6.08061 11.5672 6.23179 12.2799 6.29376C15.8799 6.29376 19.4699 6.29376 23.0699 6.29376H25.2799C25.4099 6.29376 25.4999 6.29376 25.5399 6.46376C25.6532 6.94541 25.9015 7.38474 26.2558 7.73015C26.6101 8.07556 27.0556 8.31272 27.5399 8.41376L27.6999 8.46376V9.97376C27.6999 11.2138 27.6999 12.4538 27.6999 13.7038C27.6999 13.9238 27.6399 14.0038 27.4199 14.0638C26.9627 14.1738 26.5422 14.4013 26.1999 14.7238C25.8686 15.0546 25.6335 15.4695 25.5199 15.9238C25.4699 16.0638 25.4399 16.1438 25.2599 16.1438H11.7399C11.7399 16.0238 11.6799 15.8938 11.6399 15.7738C11.4994 15.356 11.255 14.9807 10.9296 14.6834C10.6043 14.386 10.2086 14.1762 9.77992 14.0738C9.57992 14.0738 9.50992 13.9538 9.50992 13.7538C9.50992 12.4638 9.50992 11.1838 9.50992 9.90376C9.50992 9.69376 9.50992 9.60376 9.22992 9.57376C8.60992 9.50376 7.98992 9.39376 7.36992 9.29376C7.19992 9.29376 7.10993 9.29376 7.04993 9.46376C6.17659 11.6638 5.29659 13.8671 4.40993 16.0738V16.2038L22.9299 23.2038C23.0899 22.7938 23.2599 22.3938 23.4199 21.9938C23.6599 21.3838 23.9099 20.7838 24.1399 20.1738C24.2099 19.9838 24.3099 19.9538 24.4999 19.9938C24.9799 20.0938 25.4999 20.1838 25.9499 20.2638H26.1199C26.2599 19.5038 26.4099 18.7438 26.5499 17.9838C26.5499 17.7238 26.6499 17.4638 26.6899 17.2038C26.7299 16.9438 26.7699 17.0138 26.9099 17.0238H28.5299L28.4999 5.44376ZM10.1499 17.4438L23.2799 19.7738C23.2799 20.0238 23.1499 20.0838 22.9299 20.0538C22.5754 20.0072 22.2152 20.031 21.8699 20.1238C21.5283 20.2234 21.2115 20.3938 20.9399 20.6238C20.7044 20.831 20.4807 21.0514 20.2699 21.2838L10.1499 17.4438ZM25.7699 16.9638V17.0538C25.6885 17.0953 25.6006 17.1223 25.5099 17.1338C25.039 17.1626 24.5839 17.3143 24.1899 17.5738C23.7959 17.8336 23.4811 18.1968 23.2799 18.6238C23.2698 18.6621 23.249 18.6968 23.2199 18.7238L23.1299 18.8038H23.0099C22.9705 18.8135 22.9293 18.8135 22.8899 18.8038L13.6999 17.1738L12.6999 16.9838L25.7699 16.9638ZM7.76993 10.0738C7.50993 11.4438 7.24992 12.8138 6.97992 14.2138L6.28992 13.6438C6.78992 12.4938 7.27993 11.3038 7.73993 10.0738H7.76993ZM7.96992 13.9638C8.18992 12.7438 8.40992 11.5538 8.63992 10.3538V14.3538C8.50992 14.2838 8.40993 14.2138 8.29993 14.1638L7.93993 13.9938L7.96992 13.9638Z" fill="#3D1C63"/>
</svg>
