<svg width="31" height="31" viewBox="0 0 31 31" fill="none" xmlns="http://www.w3.org/2000/svg">
<path d="M29.5997 15.3338L16.1297 1.07378C16.0299 0.976178 15.9151 0.895154 15.7897 0.833782C15.6622 0.783283 15.5267 0.756185 15.3897 0.753784C15.2524 0.754302 15.1166 0.78147 14.9897 0.833782C14.8608 0.889053 14.7449 0.970825 14.6497 1.07378L1.16967 15.3338C0.774273 15.7606 0.556172 16.322 0.559671 16.9038C0.554211 17.4672 0.770149 18.0103 1.16102 18.4161C1.55188 18.8219 2.08644 19.0581 2.64967 19.0738H4.06967V29.2938C4.06568 29.4356 4.08967 29.5769 4.14029 29.7094C4.1909 29.842 4.26715 29.9633 4.36466 30.0664C4.46217 30.1694 4.57904 30.2523 4.70859 30.3102C4.83814 30.3681 4.97783 30.3999 5.11967 30.4038H13.2797V22.6438H16.9497V30.4038H25.6497C25.9282 30.3857 26.1887 30.2596 26.3755 30.0522C26.5623 29.8448 26.6607 29.5727 26.6497 29.2938V19.0738H28.0697C28.3497 19.0758 28.627 19.019 28.8837 18.907C29.1404 18.795 29.3707 18.6304 29.5597 18.4238C29.9525 17.9973 30.1706 17.4386 30.1706 16.8588C30.1706 16.2789 29.9525 15.7203 29.5597 15.2938L29.5997 15.3338Z" fill="#3D1C63"/>
</svg>
