<svg width="24" height="31" viewBox="0 0 24 31" fill="none" xmlns="http://www.w3.org/2000/svg">
<path d="M11.9803 13.6838C13.1189 13.6838 14.238 13.3889 15.2287 12.8277C16.2194 12.2664 17.0477 11.4581 17.633 10.4815C18.2183 9.50493 18.5406 8.39332 18.5685 7.25509C18.5964 6.11685 18.3289 4.99081 17.792 3.98673C17.2552 2.98264 16.4674 2.13477 15.5054 1.52576C14.5434 0.916741 13.44 0.56736 12.3028 0.511672C11.1656 0.455985 10.0334 0.695889 9.01644 1.208C7.99954 1.72011 7.13265 2.48695 6.5003 3.43379C5.83759 4.42607 5.45673 5.57967 5.39837 6.77147C5.34001 7.96328 5.60635 9.14856 6.16894 10.2008C6.73153 11.2531 7.56925 12.1329 8.59274 12.7463C9.61623 13.3597 10.7871 13.6838 11.9803 13.6838ZM21.8703 30.1638C22.3071 30.1612 22.7252 29.9865 23.0341 29.6776C23.343 29.3687 23.5177 28.9506 23.5203 28.5138C23.5657 26.9704 23.301 25.4336 22.7418 23.9944C22.1825 22.5552 21.3401 21.2428 20.2645 20.1351C19.1889 19.0273 17.9019 18.1467 16.4798 17.5453C15.0577 16.944 13.5293 16.6341 11.9853 16.6341C10.4412 16.6341 8.9129 16.944 7.49078 17.5453C6.06866 18.1467 4.7817 19.0273 3.70608 20.1351C2.63046 21.2428 1.78809 22.5552 1.22885 23.9944C0.669604 25.4336 0.404865 26.9704 0.450313 28.5138C0.448994 28.73 0.490434 28.9443 0.572261 29.1445C0.654088 29.3446 0.774669 29.5266 0.927089 29.6799C1.07951 29.8333 1.26076 29.955 1.46038 30.038C1.66001 30.121 1.87409 30.1638 2.0903 30.1638" fill="#3D1C63"/>
</svg>
