<svg width="35" height="31" viewBox="0 0 35 31" fill="none" xmlns="http://www.w3.org/2000/svg">
<path fill-rule="evenodd" clip-rule="evenodd" d="M29.7397 1.25367C31.3864 4.17367 33.053 7.09034 34.7397 10.0037C34.8914 10.3139 34.9337 10.6663 34.8597 11.0037C34.7812 11.8292 34.494 12.6211 34.0252 13.3051C33.5563 13.9891 32.9213 14.5426 32.1797 14.9137C32.1094 14.9384 32.05 14.987 32.0116 15.0508C31.9733 15.1147 31.9585 15.19 31.9697 15.2637V29.3937C31.9911 29.5613 31.9639 29.7315 31.8911 29.884C31.8184 30.0365 31.7034 30.1648 31.5597 30.2537C31.366 30.3459 31.1542 30.3938 30.9397 30.3937H4.8397C4.7049 30.4078 4.56865 30.3917 4.44089 30.3464C4.31314 30.3012 4.1971 30.2279 4.10126 30.1321C4.00542 30.0363 3.93221 29.9202 3.88695 29.7925C3.8417 29.6647 3.82555 29.5285 3.8397 29.3937V29.3937V15.2337C3.84904 15.1537 3.83279 15.0729 3.79325 15.0028C3.75371 14.9327 3.69294 14.877 3.61969 14.8437C2.83211 14.455 2.16597 13.8581 1.69353 13.1177C1.22109 12.3773 0.960397 11.5217 0.939702 10.6437C0.931604 10.396 0.990324 10.1508 1.1097 9.93367C2.75637 7.05367 4.39637 4.17034 6.0297 1.28367C6.11644 1.116 6.24887 0.976312 6.41167 0.880752C6.57448 0.785192 6.76101 0.737664 6.9497 0.743671H28.8797C29.0552 0.745735 29.2271 0.793953 29.378 0.883475C29.529 0.972998 29.6537 1.10067 29.7397 1.25367ZM4.36969 7.77367L3.5797 9.17367C3.55711 9.2037 3.54017 9.23758 3.5297 9.27367V9.27367H32.2797V9.20367V9.14367L31.8497 8.39367L28.5797 2.63367C28.5549 2.58229 28.5144 2.54009 28.4641 2.51314C28.4138 2.48619 28.3562 2.47587 28.2997 2.48367H7.5497C7.48669 2.47553 7.42271 2.4876 7.36699 2.51815C7.31128 2.54871 7.26672 2.59616 7.23971 2.65367C6.27971 4.38034 5.32303 6.08701 4.36969 7.77367ZM22.0797 13.6037C22.7615 13.565 23.4109 13.3002 23.9253 12.851C24.4396 12.4019 24.7896 11.794 24.9197 11.1237H18.8497C18.9999 11.8564 19.4091 12.5104 20.0024 12.9658C20.5956 13.4213 21.3331 13.6478 22.0797 13.6037V13.6037ZM13.6997 13.6037C14.4413 13.6404 15.1716 13.4105 15.7585 12.9557C16.3454 12.5008 16.7502 11.851 16.8997 11.1237H10.8197C10.9548 11.7988 11.3116 12.4095 11.8333 12.8588C12.3551 13.3081 13.012 13.5703 13.6997 13.6037ZM8.8597 11.1237H2.7797C2.92005 11.8266 3.29966 12.4592 3.85393 12.9137C4.4082 13.3683 5.10287 13.6167 5.81969 13.6167C6.53651 13.6167 7.23118 13.3683 7.78545 12.9137C8.33972 12.4592 8.71935 11.8266 8.8597 11.1237V11.1237ZM14.8597 28.5437V28.4337C14.8597 25.5437 14.8597 22.6537 14.8597 19.7637C14.8654 19.6103 14.8392 19.4574 14.7828 19.3146C14.7264 19.1718 14.641 19.0423 14.5319 18.9342C14.4229 18.8262 14.2927 18.7419 14.1494 18.6867C14.0062 18.6315 13.853 18.6067 13.6997 18.6137H11.3897C11.2333 18.6064 11.0771 18.6321 10.9312 18.689C10.7853 18.7459 10.653 18.8327 10.5427 18.9439C10.4324 19.0551 10.3467 19.1882 10.2911 19.3345C10.2355 19.4809 10.2111 19.6373 10.2197 19.7937V28.3837C10.2197 28.3837 10.2197 28.4837 10.2197 28.5337V28.6137H14.8397L14.8597 28.5437ZM16.6497 28.6037H30.1697V15.4037C29.348 15.4315 28.532 15.2562 27.7942 14.8934C27.0564 14.5306 26.4194 13.9914 25.9397 13.3237C25.4816 13.9557 24.8803 14.4702 24.185 14.825C23.4897 15.1798 22.7203 15.3648 21.9397 15.3648C21.1591 15.3648 20.3897 15.1798 19.6944 14.825C18.9991 14.4702 18.3978 13.9557 17.9397 13.3237C17.474 13.9447 16.87 14.4487 16.1758 14.7958C15.4815 15.1429 14.7159 15.3237 13.9397 15.3237C13.1635 15.3237 12.3979 15.1429 11.7036 14.7958C11.0094 14.4487 10.4054 13.9447 9.9397 13.3237C9.46377 13.9954 8.82752 14.5375 8.08878 14.9007C7.35004 15.264 6.53224 15.4369 5.70969 15.4037V28.6137H8.50969V19.7437C8.50133 18.9934 8.78614 18.2694 9.30349 17.7259C9.82084 17.1824 10.5299 16.8623 11.2797 16.8337H13.5697C13.9678 16.8182 14.3648 16.8852 14.7358 17.0305C15.1068 17.1758 15.4437 17.3962 15.7254 17.678C16.0071 17.9597 16.2276 18.2966 16.3729 18.6676C16.5181 19.0386 16.5852 19.4356 16.5697 19.8337V28.6037H16.6497ZM26.9297 11.1337C27.07 11.8366 27.4497 12.4692 28.0039 12.9238C28.5582 13.3783 29.2529 13.6267 29.9697 13.6267C30.6865 13.6267 31.3812 13.3783 31.9355 12.9238C32.4897 12.4692 32.8693 11.8366 33.0097 11.1337H26.9297ZM21.9297 16.8337H24.9297C25.2433 16.8269 25.555 16.8835 25.8461 17.0001C26.1373 17.1166 26.4019 17.2908 26.6241 17.5121C26.8464 17.7334 27.0216 17.9973 27.1394 18.288C27.2572 18.5786 27.3152 18.8901 27.3097 19.2037V22.6637C27.3177 22.9773 27.2628 23.2893 27.1483 23.5814C27.0338 23.8735 26.862 24.1397 26.643 24.3643C26.424 24.5889 26.1622 24.7674 25.8731 24.8892C25.584 25.0111 25.2734 25.0738 24.9597 25.0737H20.4497C20.1323 25.0819 19.8165 25.0255 19.5216 24.9078C19.2267 24.7901 18.9588 24.6136 18.7343 24.3891C18.5097 24.1646 18.3333 23.8967 18.2156 23.6018C18.0979 23.3069 18.0415 22.9911 18.0497 22.6737V19.2037C18.0442 18.8901 18.1021 18.5786 18.2199 18.288C18.3377 17.9973 18.513 17.7334 18.7353 17.5121C18.9575 17.2908 19.2221 17.1166 19.5133 17.0001C19.8044 16.8835 20.1161 16.8269 20.4297 16.8337H21.9297ZM25.5397 22.6237V19.2437C25.5492 19.1586 25.5395 19.0725 25.5112 18.9917C25.4829 18.911 25.4368 18.8376 25.3763 18.7771C25.3158 18.7166 25.2424 18.6704 25.1616 18.6422C25.0809 18.6139 24.9948 18.6041 24.9097 18.6137H20.4597C20.3746 18.6041 20.2885 18.6139 20.2078 18.6422C20.127 18.6704 20.0536 18.7166 19.9931 18.7771C19.9326 18.8376 19.8865 18.911 19.8582 18.9917C19.8299 19.0725 19.8202 19.1586 19.8297 19.2437V22.6237C19.8202 22.7087 19.8299 22.7948 19.8582 22.8756C19.8865 22.9564 19.9326 23.0298 19.9931 23.0903C20.0536 23.1508 20.127 23.1969 20.2078 23.2252C20.2885 23.2535 20.3746 23.2632 20.4597 23.2537H24.9097C24.9955 23.2649 25.0828 23.2564 25.1648 23.2288C25.2469 23.2013 25.3216 23.1554 25.3833 23.0947C25.4449 23.034 25.492 22.96 25.5208 22.8784C25.5497 22.7968 25.5595 22.7097 25.5497 22.6237H25.5397Z" fill="#3D1C63"/>
</svg>
