<svg width="420" height="346" viewBox="0 0 420 346" fill="none" xmlns="http://www.w3.org/2000/svg">
<path d="M318.482 307.624H289.25V307.836H318.482V307.624Z" fill="#E6E6E6"/>
<path d="M91.9163 307.726H75.4648V307.938H91.9163V307.726Z" fill="#E6E6E6"/>
<path d="M210.85 307.233H177.505V307.445H210.85V307.233Z" fill="#E6E6E6"/>
<path d="M176.655 304.208H161.75V304.42H176.655V304.208Z" fill="#E6E6E6"/>
<path d="M358.335 304.309H313.306V304.522H358.335V304.309Z" fill="#E6E6E6"/>
<path d="M198.953 260.725H34.872C33.5866 260.723 32.3546 260.21 31.4465 259.301C30.5384 258.391 30.0283 257.158 30.0283 255.873V25.2207C30.0395 23.9427 30.5545 22.7207 31.4614 21.8201C32.3683 20.9196 33.5939 20.4132 34.872 20.411H198.953C200.24 20.411 201.474 20.9222 202.384 21.8322C203.294 22.7421 203.806 23.9763 203.806 25.2632V255.873C203.806 257.16 203.294 258.394 202.384 259.304C201.474 260.214 200.24 260.725 198.953 260.725V260.725ZM34.872 20.581C33.6429 20.5832 32.465 21.073 31.5967 21.9429C30.7284 22.8128 30.2408 23.9916 30.2408 25.2207V255.873C30.2408 257.102 30.7284 258.281 31.5967 259.151C32.465 260.02 33.6429 260.51 34.872 260.512H198.953C200.183 260.51 201.362 260.021 202.232 259.151C203.101 258.281 203.591 257.103 203.593 255.873V25.2207C203.591 23.9908 203.101 22.812 202.232 21.9424C201.362 21.0728 200.183 20.5832 198.953 20.581H34.872Z" fill="#E6E6E6"/>
<path d="M382.765 260.725H218.675C217.389 260.723 216.156 260.211 215.247 259.301C214.337 258.392 213.825 257.159 213.823 255.873V25.2207C213.837 23.9419 214.354 22.7199 215.262 21.8196C216.17 20.9193 217.397 20.4132 218.675 20.411H382.765C384.042 20.4154 385.265 20.9228 386.17 21.8231C387.075 22.7234 387.589 23.9441 387.6 25.2207V255.873C387.6 257.157 387.092 258.388 386.185 259.298C385.279 260.207 384.049 260.72 382.765 260.725V260.725ZM218.675 20.581C217.446 20.5832 216.267 21.0728 215.397 21.9424C214.527 22.812 214.038 23.9908 214.036 25.2207V255.873C214.038 257.103 214.527 258.281 215.397 259.151C216.267 260.021 217.446 260.51 218.675 260.512H382.765C383.995 260.51 385.174 260.021 386.044 259.151C386.913 258.281 387.403 257.103 387.405 255.873V25.2207C387.403 23.9908 386.913 22.812 386.044 21.9424C385.174 21.0728 383.995 20.5832 382.765 20.581H218.675Z" fill="#E6E6E6"/>
<path d="M357.035 36.2422H241.229V171.185H357.035V36.2422Z" fill="#E0E0E0"/>
<path d="M360.179 36.2422H242.699V171.185H360.179V36.2422Z" fill="#F5F5F5"/>
<path d="M357.035 171.177H241.229V178.739H357.035V171.177Z" fill="#E0E0E0"/>
<path d="M374.575 171.177H263.978V178.739H374.575V171.177Z" fill="#F5F5F5"/>
<path d="M355.777 165.458V41.9611L247.109 41.9611V165.458H355.777Z" fill="#FAFAFA"/>
<path d="M262.736 165.458L288.603 41.9611H322.509L296.642 165.458H262.736Z" fill="white"/>
<path d="M302.132 165.458L327.99 41.9611H343.303L317.445 165.458H302.132Z" fill="white"/>
<path d="M237.924 36.0467V84.0925H250.67C250.67 84.0925 273.504 69.1961 278.713 38.545C278.836 37.8151 278.799 37.067 278.604 36.3528C278.409 35.6386 278.061 34.9754 277.584 34.4093C277.107 33.8433 276.512 33.3879 275.841 33.0749C275.17 32.7618 274.439 32.5986 273.699 32.5967H241.408C240.952 32.5933 240.5 32.68 240.078 32.8518C239.656 33.0235 239.273 33.277 238.949 33.5976C238.625 33.9182 238.368 34.2996 238.192 34.7199C238.016 35.1402 237.925 35.5911 237.924 36.0467V36.0467Z" fill="#E0E0E0"/>
<path d="M237.924 161.107V87.9674H250.67C250.67 87.9674 257.978 102.736 265.261 119.715C267.198 124.232 267.983 129.16 267.546 134.055C267.109 138.951 265.464 143.661 262.758 147.764C260.051 151.867 256.369 155.234 252.04 157.563C247.712 159.892 242.873 161.109 237.958 161.107H237.924Z" fill="#E0E0E0"/>
<path d="M250.262 84.0925H238.391C237.687 84.0925 237.116 84.6632 237.116 85.3672V86.6928C237.116 87.3968 237.687 87.9675 238.391 87.9675H250.262C250.966 87.9675 251.537 87.3968 251.537 86.6928V85.3672C251.537 84.6632 250.966 84.0925 250.262 84.0925Z" fill="#F5F5F5"/>
<path d="M363.808 36.0467V84.0924H351.062C351.062 84.0924 328.22 69.196 323.02 38.545C322.896 37.8157 322.933 37.0684 323.128 36.3548C323.322 35.6412 323.669 34.9784 324.146 34.4125C324.622 33.8466 325.215 33.391 325.885 33.0775C326.555 32.7639 327.285 32.5998 328.025 32.5966H360.316C360.772 32.5921 361.225 32.678 361.648 32.8493C362.071 33.0205 362.456 33.2738 362.78 33.5945C363.105 33.9152 363.363 34.297 363.539 34.7178C363.716 35.1387 363.807 35.5903 363.808 36.0467V36.0467Z" fill="#E0E0E0"/>
<path d="M363.892 161.124V87.9845H351.146C351.146 87.9845 343.838 102.745 336.547 119.732C334.623 124.25 333.848 129.175 334.291 134.066C334.735 138.958 336.382 143.663 339.087 147.762C341.792 151.861 345.47 155.227 349.792 157.559C354.114 159.89 358.947 161.115 363.858 161.124H363.892Z" fill="#E0E0E0"/>
<path d="M351.444 87.9674H363.315C364.019 87.9674 364.59 87.3967 364.59 86.6928V85.3671C364.59 84.6632 364.019 84.0925 363.315 84.0925H351.444C350.74 84.0925 350.169 84.6632 350.169 85.3671V86.6928C350.169 87.3967 350.74 87.9674 351.444 87.9674Z" fill="#F5F5F5"/>
<path d="M168.268 95.6919H117.257V151.53H168.268V95.6919Z" fill="#E0E0E0"/>
<path d="M175.44 95.6919H120.019V151.53H175.44V95.6919Z" fill="#FAFAFA"/>
<path d="M169.721 145.82V101.411H125.728V145.82H169.721Z" fill="white"/>
<path d="M136.07 123.615C136.073 120.833 137.179 118.166 139.147 116.2C141.115 114.234 143.783 113.129 146.565 113.129H148.927C151.708 113.131 154.374 114.237 156.34 116.203C158.306 118.169 159.411 120.835 159.413 123.615V123.615C159.413 124.992 159.142 126.356 158.615 127.628C158.088 128.9 157.316 130.056 156.342 131.03C155.368 132.004 154.212 132.776 152.94 133.303C151.668 133.83 150.304 134.101 148.927 134.101H146.565C145.187 134.102 143.823 133.832 142.549 133.305C141.276 132.779 140.119 132.007 139.145 131.033C138.17 130.059 137.397 128.903 136.869 127.63C136.342 126.357 136.07 124.993 136.07 123.615Z" fill="#F5F5F5"/>
<path d="M75.9405 109.016C68.8413 109.016 62.0328 106.196 57.0129 101.176C51.993 96.1563 49.1729 89.3478 49.1729 82.2486C49.1729 75.1494 51.993 68.3409 57.0129 63.321C62.0328 58.3011 68.8413 55.481 75.9405 55.481H80.7757V109.016H75.9405Z" fill="#E0E0E0"/>
<path d="M80.776 109.016C95.55 109.016 107.527 97.0395 107.527 82.2655C107.527 67.4916 95.55 55.5149 80.776 55.5149C66.0021 55.5149 54.0254 67.4916 54.0254 82.2655C54.0254 97.0395 66.0021 109.016 80.776 109.016Z" fill="#FAFAFA"/>
<path d="M80.776 102.439C91.9175 102.439 100.949 93.407 100.949 82.2655C100.949 71.124 91.9175 62.092 80.776 62.092C69.6345 62.092 60.6025 71.124 60.6025 82.2655C60.6025 93.407 69.6345 102.439 80.776 102.439Z" fill="white"/>
<path d="M89.087 89.8114L79.1787 82.8943L82.3228 67.6155L85.1271 68.1933L82.3653 81.6281L90.727 87.4575L89.087 89.8114Z" fill="#E0E0E0"/>
<path d="M296.965 203.111H260.502V301.633H296.965V203.111Z" fill="#E0E0E0"/>
<path d="M287.227 301.633H296.966V285.317H277.021L287.227 301.633Z" fill="#FAFAFA"/>
<path d="M78.3629 203.111H41.8994V301.633H78.3629V203.111Z" fill="#E0E0E0"/>
<path d="M296.973 203.111H69.8643V296.016H296.973V203.111Z" fill="#FAFAFA"/>
<path d="M79.6026 301.633H69.8643V285.317H89.8083L79.6026 301.633Z" fill="#FAFAFA"/>
<path d="M289.419 211.099H77.4189V245.293H289.419V211.099Z" fill="#F0F0F0"/>
<path d="M289.419 253.561H77.4189V287.756H289.419V253.561Z" fill="#F0F0F0"/>
<path d="M258.334 211.099H77.4189V245.293H258.334V211.099Z" fill="#E0E0E0"/>
<path d="M133.131 215.713H122.126C122.126 215.713 124.038 222.315 124.038 226.199C124.038 230.082 115.668 245.302 127.633 245.302C139.597 245.302 131.219 230.082 131.219 226.199C131.219 222.315 133.131 215.713 133.131 215.713Z" fill="#FAFAFA"/>
<path d="M89.8096 227.185V233.193C89.8096 239.855 96.2508 245.302 104.12 245.302H111.215C119.084 245.302 125.525 239.855 125.525 233.193V227.185H89.8096Z" fill="#F0F0F0"/>
<path d="M258.334 253.561H77.4189V287.756H258.334V253.561Z" fill="#E0E0E0"/>
<path d="M179.025 287.136H195.97V258.915H179.025V287.136Z" fill="white"/>
<path d="M193.327 287.578H194.482V259.357H193.327V287.578Z" fill="#E6E6E6"/>
<path d="M194.569 287.79H197.526C197.751 287.79 197.934 287.607 197.934 287.382V259.544C197.934 259.319 197.751 259.136 197.526 259.136H194.569C194.343 259.136 194.161 259.319 194.161 259.544V287.382C194.161 287.607 194.343 287.79 194.569 287.79Z" fill="#EBEBEB"/>
<path d="M194.161 272.375H197.934V265.679H194.161V272.375Z" fill="white"/>
<path d="M194.161 278.57H197.934V274.44H194.161V278.57Z" fill="white"/>
<path d="M178.159 287.79H193.429C193.654 287.79 193.837 287.607 193.837 287.382V259.544C193.837 259.319 193.654 259.136 193.429 259.136H178.159C177.933 259.136 177.751 259.319 177.751 259.544V287.382C177.751 287.607 177.933 287.79 178.159 287.79Z" fill="#EBEBEB"/>
<path d="M170.758 287.068H189.453V255.932H170.758V287.068Z" fill="white"/>
<path d="M186.555 287.552H187.821V256.417H186.555V287.552Z" fill="#E6E6E6"/>
<path d="M187.914 287.79H191.178C191.426 287.79 191.628 287.588 191.628 287.34V256.629C191.628 256.38 191.426 256.179 191.178 256.179H187.914C187.666 256.179 187.464 256.38 187.464 256.629V287.34C187.464 287.588 187.666 287.79 187.914 287.79Z" fill="#F0F0F0"/>
<path d="M187.464 267.328H191.628V266.249H187.464V267.328Z" fill="white"/>
<path d="M187.464 270.455H191.628V269.376H187.464V270.455Z" fill="white"/>
<path d="M187.464 273.573H191.628V272.494H187.464V273.573Z" fill="white"/>
<path d="M169.815 287.79H186.657C186.906 287.79 187.107 287.588 187.107 287.34V256.629C187.107 256.38 186.906 256.179 186.657 256.179H169.815C169.566 256.179 169.364 256.38 169.364 256.629V287.34C169.364 287.588 169.566 287.79 169.815 287.79Z" fill="#F0F0F0"/>
<path d="M147.729 276.947C147.731 277.895 147.451 278.823 146.925 279.612C146.4 280.401 145.652 281.017 144.776 281.381C143.901 281.745 142.937 281.841 142.006 281.657C141.076 281.473 140.221 281.017 139.55 280.347C138.879 279.678 138.422 278.824 138.236 277.894C138.051 276.964 138.145 276 138.508 275.123C138.87 274.247 139.484 273.498 140.273 272.971C141.061 272.444 141.988 272.163 142.936 272.163C144.206 272.163 145.424 272.667 146.322 273.564C147.221 274.461 147.727 275.677 147.729 276.947V276.947Z" fill="#FAFAFA"/>
<path d="M139.562 279.233C139.562 279.974 139.343 280.699 138.931 281.315C138.519 281.931 137.934 282.411 137.249 282.695C136.564 282.979 135.811 283.053 135.084 282.908C134.357 282.764 133.689 282.407 133.165 281.883C132.641 281.359 132.284 280.691 132.139 279.964C131.995 279.237 132.069 278.484 132.353 277.799C132.636 277.114 133.117 276.529 133.733 276.117C134.349 275.705 135.074 275.485 135.815 275.485C136.808 275.488 137.76 275.883 138.462 276.586C139.165 277.288 139.56 278.24 139.562 279.233V279.233Z" fill="#FAFAFA"/>
<path d="M155.929 279.233C155.929 280.181 155.648 281.107 155.121 281.896C154.595 282.684 153.846 283.298 152.971 283.661C152.095 284.023 151.131 284.118 150.201 283.933C149.272 283.749 148.418 283.292 147.747 282.622C147.077 281.952 146.621 281.098 146.436 280.168C146.251 279.238 146.346 278.275 146.709 277.399C147.071 276.523 147.686 275.775 148.474 275.248C149.262 274.721 150.189 274.44 151.136 274.44C152.407 274.442 153.625 274.948 154.523 275.846C155.421 276.745 155.927 277.962 155.929 279.233V279.233Z" fill="#FAFAFA"/>
<path d="M163.781 277.831C163.781 278.779 163.5 279.705 162.973 280.493C162.446 281.282 161.698 281.896 160.822 282.259C159.946 282.621 158.983 282.716 158.053 282.531C157.123 282.346 156.269 281.89 155.599 281.22C154.929 280.549 154.472 279.695 154.287 278.766C154.102 277.836 154.197 276.872 154.56 275.997C154.923 275.121 155.537 274.372 156.325 273.846C157.113 273.319 158.04 273.038 158.988 273.038C160.259 273.038 161.478 273.543 162.377 274.442C163.276 275.341 163.781 276.56 163.781 277.831V277.831Z" fill="#FAFAFA"/>
<path d="M122.627 278.451C122.627 278.451 123.281 287.798 148.494 287.798C173.706 287.798 174.361 278.451 174.361 278.451H122.627Z" fill="#F5F5F5"/>
<path d="M193.328 235.954C193.328 235.954 194.373 245.302 234.329 245.302C274.285 245.302 275.322 235.954 275.322 235.954H193.328Z" fill="white"/>
<path d="M209.999 337C300.995 337 374.761 332.693 374.761 327.381C374.761 322.068 300.995 317.761 209.999 317.761C119.004 317.761 45.2383 322.068 45.2383 327.381C45.2383 332.693 119.004 337 209.999 337Z" fill="#F5F5F5"/>
<path opacity="0.2" d="M116.41 151.06C119.999 130.019 105.852 110.053 84.8116 106.464C63.7712 102.875 43.8051 117.022 40.2161 138.063C36.6272 159.103 50.7744 179.069 71.8149 182.658C92.8554 186.247 112.821 172.1 116.41 151.06Z" fill="black"/>
<path d="M118.258 148.262C119.692 127.772 104.244 109.999 83.7539 108.565C63.2637 107.13 45.4904 122.578 44.056 143.068C42.6217 163.558 58.0696 181.332 78.5598 182.766C99.05 184.2 116.823 168.753 118.258 148.262Z" fill="#407BFF"/>
<path opacity="0.4" d="M118.258 148.262C119.692 127.772 104.244 109.999 83.7539 108.565C63.2637 107.13 45.4904 122.578 44.056 143.068C42.6217 163.558 58.0696 181.332 78.5598 182.766C99.05 184.2 116.823 168.753 118.258 148.262Z" fill="black"/>
<path d="M176.521 107.961C187.971 94.4111 186.269 74.1444 172.719 62.694C159.17 51.2435 138.903 52.9454 127.453 66.4952C116.002 80.0449 117.704 100.312 131.254 111.762C144.804 123.212 165.07 121.511 176.521 107.961Z" fill="#407BFF"/>
<path opacity="0.4" d="M176.521 107.961C187.971 94.4111 186.269 74.1444 172.719 62.694C159.17 51.2435 138.903 52.9454 127.453 66.4952C116.002 80.0449 117.704 100.312 131.254 111.762C144.804 123.212 165.07 121.511 176.521 107.961Z" fill="black"/>
<path opacity="0.2" d="M172.777 104.389C182.268 92.9081 180.655 75.907 169.174 66.4159C157.693 56.9248 140.692 58.5379 131.201 70.0188C121.71 81.4997 123.323 98.5008 134.804 107.992C146.284 117.483 163.286 115.87 172.777 104.389Z" fill="black"/>
<path d="M173.59 104.671C182.274 93.3091 180.103 77.0594 168.741 68.3759C157.38 59.6924 141.13 61.8635 132.446 73.2251C123.763 84.5867 125.934 100.836 137.296 109.52C148.657 118.203 164.907 116.032 173.59 104.671Z" fill="#407BFF"/>
<path opacity="0.4" d="M173.59 104.671C182.274 93.3091 180.103 77.0594 168.741 68.3759C157.38 59.6924 141.13 61.8635 132.446 73.2251C123.763 84.5867 125.934 100.836 137.296 109.52C148.657 118.203 164.907 116.032 173.59 104.671Z" fill="black"/>
<path d="M85.3058 304.208H84.4561V313.801H85.3058V304.208Z" fill="#407BFF"/>
<path opacity="0.1" d="M85.3058 304.208H84.4561V313.801H85.3058V304.208Z" fill="black"/>
<path d="M335.545 228.196H334.695V241.342H335.545V228.196Z" fill="#407BFF"/>
<path d="M335.545 248.242H334.695V255.371H335.545V248.242Z" fill="#407BFF"/>
<path opacity="0.1" d="M335.545 228.196H334.695V241.342H335.545V228.196Z" fill="black"/>
<path opacity="0.1" d="M335.545 248.242H334.695V255.371H335.545V248.242Z" fill="black"/>
<path d="M319.79 171.194H100.219C93.1555 171.194 87.4297 176.919 87.4297 183.983V312.51C87.4297 319.573 93.1555 325.299 100.219 325.299H319.79C326.853 325.299 332.579 319.573 332.579 312.51V183.983C332.579 176.919 326.853 171.194 319.79 171.194Z" fill="#407BFF"/>
<path opacity="0.2" d="M319.79 171.194H100.219C93.1555 171.194 87.4297 176.919 87.4297 183.983V312.51C87.4297 319.573 93.1555 325.299 100.219 325.299H319.79C326.853 325.299 332.579 319.573 332.579 312.51V183.983C332.579 176.919 326.853 171.194 319.79 171.194Z" fill="black"/>
<path d="M292.894 224.856C297.102 224.856 301.137 223.185 304.113 220.21C307.088 217.234 308.759 213.199 308.759 208.991C308.759 204.784 307.088 200.748 304.113 197.773C301.137 194.798 297.102 193.126 292.894 193.126H272.415C268.207 193.126 264.172 194.798 261.197 197.773C258.221 200.748 256.55 204.784 256.55 208.991C256.55 213.199 258.221 217.234 261.197 220.21C264.172 223.185 268.207 224.856 272.415 224.856H292.894Z" fill="#407BFF"/>
<path d="M154.545 224.848H116.756C113.714 224.848 111.249 227.313 111.249 230.354V255.057C111.249 258.098 113.714 260.564 116.756 260.564H154.545C157.586 260.564 160.051 258.098 160.051 255.057V230.354C160.051 227.313 157.586 224.848 154.545 224.848Z" fill="#407BFF"/>
<path opacity="0.3" d="M154.545 224.848H116.756C113.714 224.848 111.249 227.313 111.249 230.354V255.057C111.249 258.098 113.714 260.564 116.756 260.564H154.545C157.586 260.564 160.051 258.098 160.051 255.057V230.354C160.051 227.313 157.586 224.848 154.545 224.848Z" fill="white"/>
<path d="M180.692 189.226H115.149C112.995 189.226 111.249 190.97 111.249 193.122C111.249 195.274 112.995 197.018 115.149 197.018H180.692C182.846 197.018 184.592 195.274 184.592 193.122C184.592 190.97 182.846 189.226 180.692 189.226Z" fill="#407BFF"/>
<path opacity="0.3" d="M180.692 189.226H115.149C112.995 189.226 111.249 190.97 111.249 193.122C111.249 195.274 112.995 197.018 115.149 197.018H180.692C182.846 197.018 184.592 195.274 184.592 193.122C184.592 190.97 182.846 189.226 180.692 189.226Z" fill="white"/>
<path d="M146.446 278.29H116.968C113.809 278.29 111.249 280.85 111.249 284.009V289.354C111.249 292.512 113.809 295.073 116.968 295.073H146.446C149.605 295.073 152.165 292.512 152.165 289.354V284.009C152.165 280.85 149.605 278.29 146.446 278.29Z" fill="#407BFF"/>
<path opacity="0.3" d="M146.446 278.29H116.968C113.809 278.29 111.249 280.85 111.249 284.009V289.354C111.249 292.512 113.809 295.073 116.968 295.073H146.446C149.605 295.073 152.165 292.512 152.165 289.354V284.009C152.165 280.85 149.605 278.29 146.446 278.29Z" fill="white"/>
<path d="M198.639 278.29H169.16C166.002 278.29 163.441 280.85 163.441 284.009V289.354C163.441 292.512 166.002 295.073 169.16 295.073H198.639C201.797 295.073 204.358 292.512 204.358 289.354V284.009C204.358 280.85 201.797 278.29 198.639 278.29Z" fill="#407BFF"/>
<path opacity="0.3" d="M198.639 278.29H169.16C166.002 278.29 163.441 280.85 163.441 284.009V289.354C163.441 292.512 166.002 295.073 169.16 295.073H198.639C201.797 295.073 204.358 292.512 204.358 289.354V284.009C204.358 280.85 201.797 278.29 198.639 278.29Z" fill="white"/>
<path d="M250.84 278.29H221.361C218.203 278.29 215.643 280.85 215.643 284.009V289.354C215.643 292.512 218.203 295.073 221.361 295.073H250.84C253.998 295.073 256.559 292.512 256.559 289.354V284.009C256.559 280.85 253.998 278.29 250.84 278.29Z" fill="#407BFF"/>
<path opacity="0.3" d="M250.84 278.29H221.361C218.203 278.29 215.643 280.85 215.643 284.009V289.354C215.643 292.512 218.203 295.073 221.361 295.073H250.84C253.998 295.073 256.559 292.512 256.559 289.354V284.009C256.559 280.85 253.998 278.29 250.84 278.29Z" fill="white"/>
<path d="M303.032 278.29H273.554C270.395 278.29 267.835 280.85 267.835 284.009V289.354C267.835 292.512 270.395 295.073 273.554 295.073H303.032C306.191 295.073 308.751 292.512 308.751 289.354V284.009C308.751 280.85 306.191 278.29 303.032 278.29Z" fill="#407BFF"/>
<path opacity="0.3" d="M303.032 278.29H273.554C270.395 278.29 267.835 280.85 267.835 284.009V289.354C267.835 292.512 270.395 295.073 273.554 295.073H303.032C306.191 295.073 308.751 292.512 308.751 289.354V284.009C308.751 280.85 306.191 278.29 303.032 278.29Z" fill="white"/>
<path d="M246.541 115.432C244.527 121.117 242.292 126.615 239.921 132.113C237.521 137.704 234.768 143.136 231.678 148.377C231.262 149.049 230.828 149.72 230.378 150.391L230.047 150.893L229.596 151.513C229.29 151.904 229.001 152.244 228.746 152.575C227.676 153.769 226.541 154.903 225.347 155.974C223.078 158.073 220.767 159.977 218.43 161.855C213.74 165.577 208.947 169.061 203.984 172.366L201.019 168.687L213.51 156.374C215.575 154.326 217.623 152.261 219.535 150.196C220.478 149.168 221.396 148.114 222.152 147.145C222.339 146.907 222.501 146.669 222.645 146.465L222.824 146.176L223.07 145.735C223.401 145.148 223.75 144.579 224.073 143.976C226.673 139.089 228.967 133.778 231.177 128.391C233.386 123.003 235.511 117.573 237.55 112.186L246.541 115.432Z" fill="#E4897B"/>
<path d="M248.928 111.336C250.857 116.979 239.521 133.574 239.521 133.574L228.695 127.55C230.54 122.371 232.72 117.319 235.222 112.424C239.011 105.252 246.812 105.141 248.928 111.336Z" fill="#407BFF"/>
<path opacity="0.7" d="M248.928 111.336C250.857 116.979 239.521 133.574 239.521 133.574L228.695 127.55C230.54 122.371 232.72 117.319 235.222 112.424C239.011 105.252 246.812 105.141 248.928 111.336Z" fill="white"/>
<path opacity="0.31" d="M249.089 112.041C246.658 110.877 243.863 111.854 240.914 116.511C237.965 121.168 235.458 128.943 235.187 131.161L239.529 133.566C239.529 133.566 249.989 118.236 249.089 112.041Z" fill="#407BFF"/>
<path d="M241.595 107.019C241.595 107.019 233.505 126.046 239.334 161.472H273.027C273.444 156.297 271.064 131.068 276.902 106.696C273.193 105.974 269.44 105.497 265.668 105.269C260.899 104.997 256.119 104.997 251.35 105.269C248.058 105.603 244.797 106.188 241.595 107.019V107.019Z" fill="#407BFF"/>
<path opacity="0.7" d="M241.595 107.019C241.595 107.019 233.505 126.046 239.334 161.472H273.027C273.444 156.297 271.064 131.068 276.902 106.696C273.193 105.974 269.44 105.497 265.668 105.269C260.899 104.997 256.119 104.997 251.35 105.269C248.058 105.603 244.797 106.188 241.595 107.019V107.019Z" fill="white"/>
<path d="M284.958 312.408L279.97 316.878L270.461 306.986L275.458 302.516L284.958 312.408Z" fill="#E4897B"/>
<path d="M267.852 321.713H261.555L260.739 307.122H267.036L267.852 321.713Z" fill="#E4897B"/>
<path d="M270.47 306.986L275.364 312.085L280.361 307.615L275.466 302.516L270.47 306.986Z" fill="#CE6F64"/>
<path d="M267.036 307.131H260.739L261.164 314.651H267.461L267.036 307.131Z" fill="#CE6F64"/>
<path d="M239.335 161.472C239.335 161.472 232.698 207.411 230.437 232.411C228.619 252.474 272 312.289 272 312.289L280.387 304.394C280.387 304.394 248.707 250.766 251.146 228.434C253.509 206.807 261.513 161.447 261.513 161.447L239.335 161.472Z" fill="#407BFF"/>
<path opacity="0.7" d="M239.335 161.472C239.335 161.472 232.698 207.411 230.437 232.411C228.619 252.474 272 312.289 272 312.289L280.387 304.394C280.387 304.394 248.707 250.766 251.146 228.434C253.509 206.807 261.513 161.447 261.513 161.447L239.335 161.472Z" fill="black"/>
<path opacity="0.2" d="M251.146 228.459C252.361 217.319 255.08 199.865 257.417 185.572C256.194 183.175 252.761 178.323 252.761 178.323C249.684 188.954 242.997 229.029 252.54 283.15C262.482 299.177 271.999 312.314 271.999 312.314L273.299 291.648C264.113 274.364 249.455 243.9 251.146 228.459Z" fill="black"/>
<path d="M251.315 161.472C251.315 161.472 250.72 209.612 251.74 227.652C252.853 247.401 258.462 312.833 258.462 312.833H270.001C270.001 312.833 269.653 248.998 270.333 229.454C271.089 208.209 273.044 161.472 273.044 161.472H251.315Z" fill="#407BFF"/>
<path opacity="0.7" d="M251.315 161.472C251.315 161.472 250.72 209.612 251.74 227.652C252.853 247.401 258.462 312.833 258.462 312.833H270.001C270.001 312.833 269.653 248.998 270.333 229.454C271.089 208.209 273.044 161.472 273.044 161.472H251.315Z" fill="black"/>
<path d="M261.225 320.99H268.303C268.421 320.986 268.536 321.028 268.624 321.107C268.711 321.187 268.764 321.297 268.771 321.415L269.119 327.015C269.12 327.161 269.092 327.306 269.037 327.442C268.983 327.577 268.902 327.701 268.799 327.805C268.696 327.909 268.574 327.992 268.44 328.049C268.305 328.106 268.16 328.136 268.014 328.137C265.55 328.094 264.369 327.95 261.259 327.95C259.347 327.95 251.206 328.154 248.563 328.154C245.92 328.154 246.014 325.537 247.11 325.299C252.132 324.236 258.361 322.749 260.145 321.373C260.453 321.13 260.833 320.995 261.225 320.99V320.99Z" fill="#263238"/>
<path d="M278.593 315.093L284.661 311.006C284.76 310.927 284.883 310.884 285.009 310.884C285.136 310.884 285.258 310.927 285.357 311.006L289.997 315.688C290.088 315.791 290.154 315.912 290.193 316.044C290.231 316.175 290.24 316.314 290.219 316.449C290.198 316.585 290.147 316.714 290.071 316.827C289.994 316.941 289.894 317.036 289.776 317.107C285.901 320.09 283.106 322.342 280.896 324.823C278.347 327.721 276.97 328.137 271.022 328.137C268.269 328.137 266.714 325.817 267.835 325.46C277.744 322.325 275.092 320.956 277.506 316.359C277.757 315.853 278.131 315.418 278.593 315.093Z" fill="#263238"/>
<path d="M202.446 167.896L195.877 168.126L197.254 173.276C197.254 173.276 204.12 173.887 204.732 171.814L202.446 167.896Z" fill="#E4897B"/>
<path d="M188.79 171.194L193.396 173.879L197.254 173.276L195.877 168.126L188.79 171.194Z" fill="#E4897B"/>
<path opacity="0.31" d="M269.373 112.713C268.677 116.724 269.603 126.309 273.044 137.407C273.314 127.899 274.42 118.432 276.35 109.118V109.067C274.141 108.846 270.045 108.948 269.373 112.713Z" fill="#407BFF"/>
<path d="M264.811 89.1401C263.748 93.7459 262.55 102.193 265.66 105.286C265.66 105.286 264.318 109.101 255.752 109.101C246.337 109.101 251.342 105.286 251.342 105.286C256.525 104.062 256.525 100.247 255.752 96.6691L264.811 89.1401Z" fill="#E4897B"/>
<path d="M255.514 109.084L252.965 111.795L254.214 114.412L256.245 114.506L257.978 112.007L255.514 109.084Z" fill="#407BFF"/>
<path d="M261.122 92.2078L255.76 96.6435C255.953 97.4813 256.072 98.3343 256.117 99.1928C258.088 98.9124 260.858 96.754 261.139 94.6976C261.289 93.8739 261.283 93.0293 261.122 92.2078V92.2078Z" fill="#CE6F64"/>
<path d="M253.636 73.5214C250.415 74.6176 247.84 83.1577 251.596 85.4181C255.352 87.6785 259.754 71.4395 253.636 73.5214Z" fill="#263238"/>
<path d="M266.825 84.3134C264.904 90.2618 264.089 93.8563 260.214 96.2951C258.964 97.0986 257.518 97.5449 256.032 97.5859C254.547 97.6269 253.078 97.2609 251.786 96.5276C250.494 95.7944 249.426 94.7217 248.699 93.4255C247.973 92.1294 247.614 90.6593 247.663 89.1741C247.739 83.4552 250.866 74.6516 257.452 73.5469C258.871 73.2729 260.338 73.3766 261.704 73.8477C263.071 74.3187 264.29 75.1405 265.239 76.2308C266.188 77.3211 266.834 78.6416 267.113 80.0601C267.391 81.4786 267.292 82.9453 266.825 84.3134V84.3134Z" fill="#E4897B"/>
<path d="M271.583 74.3712C269.662 79.0109 274.132 75.136 272.976 80.6425C272.228 84.2285 265.753 92.8196 263.255 92.0379C260.757 91.2561 260.782 85.1633 263.969 80.8549C265.804 78.3821 261.836 75.5779 252.922 75.8753C244.008 76.1727 238.62 71.1591 250.466 67.4796C250.466 67.4796 246.098 70.0289 248.69 70.8787C252.361 72.2468 275.432 65.0748 271.583 74.3712Z" fill="#263238"/>
<path d="M269.884 76.4955C269.79 76.4955 271.881 75.9772 272.994 72.2467C272.994 72.3062 272.629 77.8042 269.884 76.4955Z" fill="#263238"/>
<path d="M253.203 68.3038C247.722 70.0034 249.991 71.9153 252.26 72.3912L257.461 70.3518C249.558 71.397 253.203 68.3038 253.203 68.3038Z" fill="#263238"/>
<path d="M267.878 91.5789C266.739 92.6865 265.219 93.3159 263.63 93.3379C261.531 93.3379 261.08 91.3495 262.21 89.6839C263.213 88.1884 265.508 86.3868 267.36 87.1941C269.213 88.0014 269.272 90.2108 267.878 91.5789Z" fill="#E4897B"/>
<path d="M257.145 83.982C257.017 84.4749 256.652 84.8318 256.295 84.7468C255.938 84.6618 255.81 84.2115 255.938 83.7186C256.065 83.2257 256.431 82.8688 256.788 82.9623C257.145 83.0558 257.272 83.4892 257.145 83.982Z" fill="#263238"/>
<path d="M251.537 82.7499C251.41 83.2428 251.044 83.5997 250.687 83.5147C250.33 83.4297 250.203 82.9878 250.33 82.495C250.458 82.0021 250.815 81.6452 251.18 81.7302C251.546 81.8152 251.639 82.257 251.537 82.7499Z" fill="#263238"/>
<path d="M253.254 83.3872C252.287 84.763 251.145 86.0058 249.854 87.0837C250.138 87.399 250.488 87.6484 250.878 87.8143C251.269 87.9802 251.691 88.0586 252.115 88.0439L253.254 83.3872Z" fill="#DE5753"/>
<path d="M254.188 89.8369C253.836 89.8365 253.486 89.7966 253.143 89.718C253.105 89.7079 253.073 89.6838 253.052 89.6507C253.032 89.6175 253.025 89.5777 253.032 89.5395C253.042 89.5018 253.066 89.4694 253.1 89.4488C253.133 89.4283 253.173 89.4212 253.211 89.429C253.837 89.5684 254.486 89.5643 255.11 89.4172C255.734 89.27 256.316 88.9836 256.814 88.5793C256.842 88.5518 256.88 88.5364 256.92 88.5364C256.96 88.5364 256.998 88.5518 257.026 88.5793C257.054 88.6078 257.069 88.6459 257.069 88.6855C257.069 88.7251 257.054 88.7632 257.026 88.7917C256.237 89.471 255.229 89.8422 254.188 89.8369V89.8369Z" fill="#263238"/>
<path d="M259.371 82.563C259.313 82.5639 259.256 82.5475 259.208 82.5156C259.159 82.4838 259.122 82.4381 259.099 82.3845C258.96 82.0436 258.74 81.7413 258.459 81.5032C258.178 81.265 257.844 81.0981 257.485 81.0164C257.446 81.0112 257.408 80.9982 257.374 80.9782C257.34 80.9582 257.31 80.9316 257.286 80.9C257.262 80.8683 257.245 80.8323 257.235 80.7939C257.226 80.7555 257.224 80.7156 257.23 80.6765C257.243 80.5982 257.285 80.5279 257.348 80.4804C257.412 80.4328 257.491 80.4117 257.57 80.4215C258.028 80.5148 258.456 80.7184 258.817 81.0146C259.178 81.3107 259.462 81.6905 259.643 82.1211C259.66 82.1566 259.669 82.1952 259.671 82.2345C259.672 82.2737 259.665 82.3129 259.651 82.3494C259.637 82.386 259.615 82.4193 259.587 82.4473C259.56 82.4752 259.527 82.4972 259.49 82.512C259.455 82.5375 259.414 82.5549 259.371 82.563Z" fill="#263238"/>
<path d="M249.642 80.3111C249.574 80.3106 249.508 80.2866 249.455 80.2431C249.394 80.1918 249.355 80.1187 249.347 80.0393C249.339 79.9599 249.363 79.8806 249.412 79.8182C249.712 79.4457 250.093 79.147 250.526 78.9452C250.959 78.7433 251.433 78.6437 251.911 78.6541C251.95 78.6573 251.988 78.6682 252.023 78.6862C252.058 78.7042 252.089 78.7289 252.114 78.7589C252.139 78.7889 252.158 78.8236 252.17 78.8611C252.182 78.8985 252.186 78.9379 252.183 78.977C252.181 79.0165 252.17 79.0552 252.153 79.0906C252.135 79.1261 252.11 79.1575 252.08 79.183C252.05 79.2085 252.015 79.2275 251.977 79.2388C251.939 79.2502 251.899 79.2536 251.86 79.2489C251.478 79.2449 251.1 79.3286 250.755 79.4936C250.41 79.6586 250.108 79.9005 249.871 80.2006C249.844 80.2353 249.809 80.2634 249.769 80.2825C249.73 80.3017 249.686 80.3114 249.642 80.3111V80.3111Z" fill="#263238"/>
<path d="M278.534 111.039C279.197 112.067 279.749 112.976 280.31 113.962C280.871 114.948 281.406 115.899 281.933 116.885C282.97 118.848 283.947 120.854 284.84 122.901C286.711 127.094 288.116 131.48 289.029 135.979L289.114 136.413L289.156 136.625L289.216 136.982C289.288 137.457 289.325 137.937 289.326 138.418C289.318 139.223 289.233 140.026 289.071 140.815C288.784 142.116 288.368 143.385 287.831 144.604C286.877 146.741 285.739 148.791 284.432 150.731C281.96 154.421 279.149 157.872 276.036 161.039L272.339 158.073C274.396 154.487 276.444 150.765 278.16 147.12C279.004 145.376 279.726 143.576 280.319 141.732C280.561 140.963 280.726 140.172 280.812 139.37C280.841 139.107 280.841 138.842 280.812 138.58C280.812 138.503 280.812 138.435 280.761 138.427C280.71 138.418 280.761 138.427 280.761 138.384L280.71 138.214L280.608 137.866C280.071 135.991 279.432 134.148 278.696 132.342C277.948 130.498 277.115 128.663 276.24 126.836C275.365 125.009 274.421 123.207 273.453 121.406C272.977 120.505 272.475 119.613 271.974 118.729L270.479 116.18L278.534 111.039Z" fill="#E4897B"/>
<path d="M258.997 322.078C258.573 322.121 258.148 322.002 257.807 321.747C257.711 321.64 257.644 321.511 257.611 321.371C257.579 321.232 257.582 321.086 257.621 320.948C257.639 320.855 257.681 320.768 257.742 320.696C257.803 320.623 257.881 320.566 257.969 320.532C258.742 320.226 260.518 321.449 260.722 321.585C260.747 321.601 260.767 321.624 260.778 321.652C260.788 321.679 260.79 321.71 260.782 321.738C260.777 321.767 260.764 321.794 260.745 321.815C260.725 321.836 260.699 321.851 260.671 321.857C260.122 321.989 259.561 322.063 258.997 322.078V322.078ZM258.258 320.778C258.199 320.768 258.138 320.768 258.079 320.778C258.036 320.794 257.998 320.821 257.97 320.857C257.941 320.893 257.923 320.936 257.918 320.982C257.887 321.071 257.88 321.167 257.898 321.259C257.916 321.352 257.958 321.438 258.02 321.509C258.309 321.798 259.133 321.832 260.263 321.611C259.662 321.194 258.978 320.913 258.258 320.787V320.778Z" fill="white"/>
<path d="M260.637 321.866H260.561C259.932 321.492 258.997 320.166 259.142 319.486C259.167 319.362 259.234 319.249 259.331 319.167C259.428 319.086 259.55 319.039 259.677 319.036C259.789 319.021 259.903 319.032 260.011 319.067C260.118 319.103 260.216 319.162 260.298 319.24C260.935 319.86 260.79 321.67 260.79 321.747C260.787 321.772 260.778 321.796 260.763 321.817C260.748 321.838 260.728 321.854 260.705 321.866H260.637ZM259.788 319.316H259.72C259.507 319.316 259.456 319.444 259.439 319.529C259.346 319.979 259.966 320.973 260.51 321.432C260.588 320.743 260.445 320.047 260.102 319.444C260.059 319.402 260.009 319.37 259.953 319.348C259.898 319.326 259.839 319.315 259.779 319.316H259.788Z" fill="white"/>
<path d="M274.515 318.509C274.357 318.514 274.201 318.485 274.056 318.424C273.944 318.379 273.844 318.308 273.766 318.216C273.688 318.124 273.632 318.015 273.606 317.897C273.584 317.826 273.581 317.75 273.597 317.677C273.614 317.604 273.649 317.536 273.699 317.481C274.268 316.793 277.251 316.996 277.591 317.022C277.623 317.023 277.653 317.034 277.678 317.054C277.702 317.074 277.719 317.102 277.727 317.132C277.733 317.163 277.73 317.195 277.718 317.224C277.706 317.253 277.685 317.277 277.659 317.294C276.71 317.919 275.638 318.334 274.515 318.509V318.509ZM276.316 317.268C275.271 317.268 274.175 317.37 273.928 317.668C273.914 317.691 273.907 317.717 273.907 317.744C273.907 317.771 273.914 317.798 273.928 317.821C273.943 317.894 273.975 317.963 274.022 318.021C274.07 318.079 274.131 318.124 274.2 318.152C274.676 318.348 275.747 318.025 277.098 317.302L276.316 317.268Z" fill="white"/>
<path d="M277.583 317.319C276.733 317.319 274.821 316.665 274.677 315.985C274.677 315.815 274.677 315.577 275.085 315.382C276.546 314.694 277.676 317.005 277.727 317.082C277.738 317.106 277.743 317.132 277.743 317.158C277.743 317.184 277.738 317.21 277.727 317.234C277.713 317.261 277.693 317.282 277.667 317.297C277.642 317.312 277.613 317.32 277.583 317.319V317.319ZM275.62 315.56C275.476 315.559 275.333 315.591 275.204 315.654C275.025 315.739 274.94 315.832 274.957 315.917C275.042 316.317 276.419 316.878 277.32 316.997C277.048 316.538 276.393 315.56 275.62 315.56V315.56Z" fill="white"/>
<path d="M274.021 156.697L267.784 155.6L271.005 162.866C271.005 162.866 276.724 162.866 276.469 159.875L274.021 156.697Z" fill="#E4897B"/>
<path d="M263.068 159.246L266.017 165.118L270.971 162.857L267.751 155.6L263.068 159.246Z" fill="#E4897B"/>
<path d="M280.896 303.936L271.489 312.799L268.455 309.544L279.222 299.738L280.896 303.936Z" fill="#407BFF"/>
<path opacity="0.6" d="M280.896 303.936L271.489 312.799L268.455 309.544L279.222 299.738L280.896 303.936Z" fill="white"/>
<path d="M270.461 312.833H257.995L257.307 308.456L271.064 309.136L270.461 312.833Z" fill="#407BFF"/>
<path opacity="0.6" d="M270.461 312.833H257.995L257.307 308.456L271.064 309.136L270.461 312.833Z" fill="white"/>
<path d="M276.903 106.696C282.851 107.546 288.944 128.212 288.944 128.212L276.197 135.283C276.197 135.283 271.022 125.459 268.55 118.168C265.958 110.529 270.538 105.762 276.903 106.696Z" fill="#407BFF"/>
<path opacity="0.7" d="M276.903 106.696C282.851 107.546 288.944 128.212 288.944 128.212L276.197 135.283C276.197 135.283 271.022 125.459 268.55 118.168C265.958 110.529 270.538 105.762 276.903 106.696Z" fill="white"/>
<path opacity="0.2" d="M255.514 109.084L252.965 111.795L254.214 114.412L256.245 114.506L257.978 112.007L255.514 109.084Z" fill="black"/>
<path d="M254.435 113.945C254.435 113.945 249.6 133.974 249.413 138.138C249.149 143.865 251.546 153.646 251.546 153.646C251.546 153.646 254.945 145.514 255.642 137.959C256.338 130.405 255.82 118.185 256.134 113.945H254.435Z" fill="#407BFF"/>
<path opacity="0.2" d="M254.435 113.945C254.435 113.945 249.6 133.974 249.413 138.138C249.149 143.865 251.546 153.646 251.546 153.646C251.546 153.646 254.945 145.514 255.642 137.959C256.338 130.405 255.82 118.185 256.134 113.945H254.435Z" fill="black"/>
<path d="M255.514 109.084C256.482 110.652 257.043 112.437 257.145 114.276C257.145 114.276 267.75 110.537 267.249 105.056C267.249 105.056 265.745 104.164 264.793 103.442C264.793 103.442 264.436 106.892 255.514 109.084Z" fill="#407BFF"/>
<path opacity="0.6" d="M255.514 109.084C256.482 110.652 257.043 112.437 257.145 114.276C257.145 114.276 267.75 110.537 267.249 105.056C267.249 105.056 265.745 104.164 264.793 103.442C264.793 103.442 264.436 106.892 255.514 109.084Z" fill="white"/>
<path d="M255.514 109.084C254.54 110.568 253.838 112.214 253.441 113.945C253.441 113.945 248.64 110.699 250.084 105.286C250.964 104.931 251.871 104.647 252.795 104.436C252.795 104.436 252.166 107.937 255.514 109.084Z" fill="#407BFF"/>
<path opacity="0.6" d="M255.514 109.084C254.54 110.568 253.838 112.214 253.441 113.945C253.441 113.945 248.64 110.699 250.084 105.286C250.964 104.931 251.871 104.647 252.795 104.436C252.795 104.436 252.166 107.937 255.514 109.084Z" fill="white"/>
<path d="M164.821 79.6343V79.6346V80.8513C164.821 81.0013 164.762 81.1451 164.655 81.2511C164.549 81.3571 164.406 81.4167 164.256 81.4167C163.944 81.4167 163.69 81.1636 163.691 80.8509V80.8513H163.891L163.691 80.8506L163.691 79.6339C163.691 79.4871 163.572 79.3676 163.425 79.3676H161.987L162.297 80.2836L162.297 80.2837L162.108 80.3478L164.821 79.6343ZM164.821 79.6343C164.821 79.264 164.673 78.909 164.411 78.6472C164.15 78.3853 163.795 78.238 163.424 78.2376H163.424H161.604M164.821 79.6343L161.604 78.2376M161.604 78.2376L161.202 77.0515C161.155 76.9123 161.055 76.797 160.925 76.7299C160.794 76.6628 160.643 76.6492 160.502 76.6919L160.56 76.8832L160.502 76.6919L149.867 79.9248L149.867 79.9245L149.857 79.9283C149.721 79.9779 149.609 80.0779 149.544 80.2076C149.479 80.3372 149.467 80.4868 149.509 80.6253C149.551 80.7639 149.645 80.881 149.771 80.9525C149.897 81.024 150.046 81.0445 150.187 81.0097L150.187 81.0099L150.197 81.0069L160.307 77.9326L161.604 78.2376Z" fill="#79A2FF" stroke="#79A2FF" stroke-width="0.4"/>
<path d="M144.265 81.035C144.339 81.0384 144.414 81.027 144.484 81.0015L157.722 76.6376L157.722 76.6376C157.792 76.6143 157.858 76.5773 157.914 76.5288C157.97 76.4803 158.016 76.4211 158.05 76.3548C158.083 76.2884 158.103 76.2162 158.108 76.1421C158.114 76.068 158.105 75.9936 158.081 75.9231C158.058 75.8526 158.021 75.7873 157.973 75.7311C157.924 75.6748 157.865 75.6287 157.799 75.5953C157.732 75.562 157.66 75.542 157.586 75.5365C157.512 75.5311 157.437 75.5402 157.367 75.5636L148.577 78.462C148.566 78.4603 148.552 78.459 148.538 78.459H142.691C141.99 78.459 141.389 78.6956 140.962 79.1221C140.536 79.5486 140.299 80.15 140.299 80.8513V96.9284C140.299 97.6297 140.536 98.2311 140.962 98.6576C141.389 99.0841 141.99 99.3207 142.691 99.3207H164.98C165.357 99.3207 165.685 99.198 165.919 98.9637C166.153 98.7293 166.276 98.4013 166.276 98.0245V94.3707C166.276 94.2207 166.217 94.0769 166.111 93.9709C166.004 93.8648 165.861 93.8053 165.711 93.8053C165.561 93.8053 165.417 93.8648 165.311 93.9709C165.205 94.0769 165.145 94.2207 165.145 94.3707V98.0245C165.145 98.1301 165.122 98.1573 165.117 98.162C165.113 98.1667 165.086 98.1899 164.98 98.1899H142.691C142.283 98.1899 141.972 98.0637 141.764 97.8556C141.556 97.6475 141.43 97.3369 141.43 96.9284V82.9242C141.788 83.1296 142.214 83.2437 142.691 83.2437H164.98C165.086 83.2437 165.113 83.2669 165.117 83.2716C165.122 83.2763 165.145 83.3034 165.145 83.409V87.2283H161.326C160.949 87.2283 160.621 87.351 160.387 87.5853C160.153 87.8196 160.03 88.1477 160.03 88.5245V92.1783C160.03 92.5551 160.153 92.8831 160.387 93.1175C160.621 93.3518 160.949 93.4745 161.326 93.4745H167.172C167.549 93.4745 167.877 93.3518 168.111 93.1175C168.346 92.8831 168.468 92.5551 168.468 92.1783V87.7937C168.468 87.4169 168.346 87.0889 168.111 86.8545C167.877 86.6202 167.549 86.4975 167.172 86.4975C167.022 86.4975 166.879 86.5571 166.772 86.6631C166.666 86.7692 166.607 86.913 166.607 87.0629C166.607 87.2129 166.666 87.3567 166.772 87.4627C166.879 87.5687 167.022 87.6283 167.172 87.6283C167.278 87.6283 167.305 87.6515 167.31 87.6562C167.314 87.6609 167.338 87.6881 167.338 87.7937V92.1783C167.338 92.2839 167.314 92.3111 167.31 92.3158C167.305 92.3205 167.278 92.3437 167.172 92.3437H161.326C161.22 92.3437 161.193 92.3205 161.189 92.3158C161.184 92.3111 161.161 92.2839 161.161 92.1783V88.5245C161.161 88.4188 161.184 88.3917 161.189 88.387C161.193 88.3823 161.22 88.3591 161.326 88.3591H165.711C165.861 88.3591 166.004 88.2995 166.111 88.1935C166.217 88.0874 166.276 87.9436 166.276 87.7937V83.409C166.276 83.0323 166.153 82.7042 165.919 82.4699C165.685 82.2356 165.357 82.1129 164.98 82.1129H142.691C142.283 82.1129 141.972 81.9866 141.764 81.7786C141.556 81.5705 141.43 81.2599 141.43 80.8513C141.43 80.4428 141.556 80.1322 141.764 79.9241C141.972 79.716 142.283 79.5898 142.691 79.5898H145.156L144.13 79.9281C144.058 79.9493 143.992 79.9845 143.934 80.0316C143.875 80.0796 143.826 80.139 143.791 80.2062C143.755 80.2735 143.734 80.3472 143.727 80.423C143.721 80.4988 143.73 80.5751 143.754 80.6473C143.778 80.7195 143.816 80.7862 143.866 80.8433C143.916 80.9004 143.977 80.9469 144.046 80.9798C144.114 81.0127 144.189 81.0315 144.265 81.035Z" fill="#79A2FF" stroke="#79A2FF" stroke-width="0.4"/>
<path d="M163.883 91.2822C164.397 91.2822 164.814 90.8654 164.814 90.3514C164.814 89.8373 164.397 89.4206 163.883 89.4206C163.369 89.4206 162.952 89.8373 162.952 90.3514C162.952 90.8654 163.369 91.2822 163.883 91.2822Z" fill="#79A2FF" stroke="#79A2FF" stroke-width="0.4"/>
<path d="M94.2976 131.382C90.0277 129.267 84.3823 128.138 77.9569 128.138C71.5314 128.138 65.886 129.267 61.6161 131.382C57.3462 133.496 54.9648 136.514 54.9648 139.634V149.488C54.9648 152.608 57.3872 155.626 61.6161 157.74C65.845 159.855 71.5314 160.984 77.9569 160.984C84.3823 160.984 90.0277 159.855 94.2976 157.74C98.5676 155.626 100.949 152.608 100.949 149.488V139.634C100.949 136.514 98.5265 133.496 94.2976 131.382ZM77.9569 131.423C90.8077 131.423 97.6643 136.185 97.6643 139.634C97.6643 141.667 95.2625 144.192 90.6025 145.895H90.5409C87.3589 147.045 83.1506 147.825 77.9569 147.825C72.7631 147.825 68.5548 147.045 65.3728 145.895H65.3112C60.6513 144.192 58.2494 141.667 58.2494 139.634C58.2494 136.185 65.106 131.423 77.9569 131.423ZM76.3146 151.11V157.679C72.4141 157.535 69.1296 156.96 66.4608 156.139V149.693C69.3964 150.514 72.7221 150.986 76.3146 151.11ZM79.5991 151.11C83.1916 150.986 86.5173 150.514 89.4529 149.693V156.139C86.7841 156.96 83.4996 157.535 79.5991 157.679V151.11ZM58.2494 149.488V145.69C59.2827 146.55 60.4125 147.287 61.6161 147.887L63.1763 148.585V154.825C59.9328 153.224 58.2494 151.192 58.2494 149.488ZM92.7374 154.825V148.585L94.2976 147.887C95.5012 147.287 96.631 146.55 97.6643 145.69V149.488C97.6643 151.192 95.981 153.224 92.7374 154.825Z" fill="#79A2FF"/>
</svg>
