<svg width="357" height="346" viewBox="0 0 357 346" fill="none" xmlns="http://www.w3.org/2000/svg">
<path d="M153.803 346C228.801 346 289.598 342.212 289.598 337.54C289.598 332.868 228.801 329.08 153.803 329.08C78.8061 329.08 18.0088 332.868 18.0088 337.54C18.0088 342.212 78.8061 346 153.803 346Z" fill="#92E3A9"/>
<path opacity="0.8" d="M153.803 346C228.801 346 289.598 342.212 289.598 337.54C289.598 332.868 228.801 329.08 153.803 329.08C78.8061 329.08 18.0088 332.868 18.0088 337.54C18.0088 342.212 78.8061 346 153.803 346Z" fill="#E6E9F6"/>
<path d="M255.847 15.8511H119.306C109.879 15.8511 102.237 23.4931 102.237 32.9199V321.183C102.237 330.609 109.879 338.251 119.306 338.251H255.847C265.274 338.251 272.916 330.609 272.916 321.183V32.9199C272.916 23.4931 265.274 15.8511 255.847 15.8511Z" fill="#263238"/>
<path d="M265.326 51.2537H109.818V302.849H265.326V51.2537Z" fill="white" stroke="#263238" stroke-width="1.33739" stroke-miterlimit="10"/>
<path d="M211.411 153.132C224.574 139.968 224.574 118.626 211.411 105.463C198.247 92.2994 176.905 92.2994 163.742 105.463C150.578 118.626 150.578 139.968 163.742 153.132C176.905 166.295 198.247 166.295 211.411 153.132Z" fill="#074BB3"/>
<path d="M231.829 287.027H143.332C143.133 287.029 142.935 286.99 142.751 286.915C142.567 286.84 142.399 286.728 142.258 286.588C142.116 286.448 142.004 286.281 141.928 286.097C141.851 285.913 141.812 285.716 141.812 285.517C141.811 285.317 141.849 285.118 141.925 284.934C142.001 284.749 142.113 284.581 142.255 284.439C142.396 284.298 142.564 284.186 142.749 284.11C142.934 284.034 143.132 283.996 143.332 283.997H231.829C232.029 283.997 232.226 284.036 232.41 284.113C232.593 284.189 232.76 284.301 232.901 284.442C233.041 284.584 233.152 284.751 233.228 284.936C233.303 285.12 233.341 285.317 233.34 285.517C233.34 285.917 233.181 286.302 232.898 286.585C232.614 286.868 232.23 287.027 231.829 287.027Z" fill="#074BB3"/>
<path d="M234.711 181.953H140.442C138.496 181.953 136.919 183.53 136.919 185.476V196.589C136.919 198.534 138.496 200.111 140.442 200.111H234.711C236.656 200.111 238.233 198.534 238.233 196.589V185.476C238.233 183.53 236.656 181.953 234.711 181.953Z" fill="#074BB3"/>
<path d="M234.711 215.915H140.442C138.496 215.915 136.919 217.492 136.919 219.438V230.55C136.919 232.496 138.496 234.073 140.442 234.073H234.711C236.656 234.073 238.233 232.496 238.233 230.55V219.438C238.233 217.492 236.656 215.915 234.711 215.915Z" fill="#074BB3"/>
<path d="M204.36 146.111L194.442 140.401V135.684C195.878 133.946 196.918 131.917 197.49 129.737C197.831 129.858 198.191 129.92 198.553 129.921C199.783 129.921 200.565 126.108 200.696 123.385C202.128 120.354 200.178 118.58 200.178 118.58C200.178 118.58 200.986 117.772 201.522 114.53C202.058 111.289 199.633 112.641 197.745 109.672C195.856 106.703 194.503 103.47 188.301 103.47C186.592 103.414 184.906 103.873 183.461 104.788C182.017 105.703 180.881 107.031 180.202 108.6C178.658 108.606 177.119 108.786 175.616 109.136C173.718 109.672 173.183 115.883 174.799 118.316C175.522 119.646 175.909 121.133 175.923 122.647C175.493 122.12 175.045 121.98 174.799 123.174C174.263 125.871 176.424 129.649 176.424 129.649L177.54 129.332C178.102 131.663 179.186 133.834 180.711 135.684V140.401L170.793 146.111C169.635 146.78 168.673 147.742 168.004 148.9C167.334 150.058 166.982 151.371 166.98 152.709V155.977C172.879 160.533 180.123 163.005 187.576 163.005C195.03 163.005 202.273 160.533 208.172 155.977V152.709C208.173 151.371 207.821 150.057 207.151 148.898C206.482 147.74 205.519 146.779 204.36 146.111Z" fill="white"/>
<path d="M149.754 229.558C149.526 229.554 149.309 229.463 149.148 229.303C149.061 229.226 148.992 229.131 148.945 229.025C148.898 228.919 148.874 228.804 148.875 228.688C148.878 228.529 148.923 228.375 149.007 228.24L150.588 225.71L147.505 225.807C147.389 225.814 147.272 225.796 147.163 225.756C147.054 225.715 146.955 225.651 146.872 225.569C146.729 225.408 146.65 225.201 146.65 224.985C146.65 224.77 146.729 224.562 146.872 224.401C146.953 224.316 147.052 224.25 147.161 224.208C147.27 224.165 147.388 224.147 147.505 224.155L150.544 224.269L148.981 221.748C148.896 221.611 148.85 221.453 148.849 221.291C148.848 221.175 148.872 221.06 148.919 220.954C148.966 220.848 149.035 220.754 149.121 220.676C149.283 220.516 149.5 220.425 149.727 220.422C149.877 220.422 150.023 220.466 150.149 220.547C150.275 220.628 150.376 220.743 150.439 220.878L151.941 223.593L153.426 220.896C153.496 220.752 153.605 220.63 153.739 220.543C153.874 220.457 154.03 220.408 154.19 220.404C154.301 220.405 154.411 220.428 154.512 220.474C154.613 220.519 154.704 220.585 154.779 220.667C154.94 220.835 155.028 221.059 155.025 221.291C155.024 221.442 154.985 221.59 154.91 221.722L153.32 224.269L156.404 224.155C156.521 224.147 156.638 224.165 156.747 224.208C156.857 224.25 156.955 224.316 157.036 224.401C157.186 224.557 157.268 224.765 157.265 224.981C157.264 225.199 157.183 225.408 157.036 225.569C156.954 225.651 156.854 225.715 156.745 225.756C156.636 225.796 156.52 225.814 156.404 225.807L153.303 225.71L154.849 228.214C154.935 228.353 154.981 228.515 154.981 228.679C154.981 228.912 154.888 229.136 154.723 229.3C154.559 229.465 154.335 229.558 154.102 229.558C153.952 229.556 153.805 229.51 153.68 229.425C153.555 229.341 153.458 229.222 153.399 229.083L151.932 226.448L150.474 229.083C150.409 229.221 150.308 229.338 150.181 229.422C150.054 229.506 149.906 229.553 149.754 229.558Z" fill="white"/>
<path d="M164.002 229.558C163.775 229.554 163.558 229.463 163.396 229.303C163.31 229.226 163.241 229.131 163.194 229.025C163.147 228.919 163.123 228.804 163.124 228.688C163.127 228.529 163.172 228.375 163.256 228.24L164.837 225.71L161.762 225.807C161.645 225.812 161.528 225.794 161.418 225.753C161.308 225.712 161.207 225.65 161.121 225.569C161.004 225.449 160.927 225.296 160.898 225.131C160.869 224.966 160.891 224.796 160.96 224.644C161.029 224.491 161.143 224.363 161.286 224.276C161.429 224.189 161.595 224.147 161.762 224.155L164.793 224.269L163.229 221.748C163.144 221.611 163.099 221.453 163.098 221.291C163.097 221.175 163.121 221.06 163.168 220.954C163.215 220.848 163.284 220.754 163.37 220.676C163.531 220.516 163.749 220.425 163.976 220.422C164.126 220.422 164.272 220.466 164.398 220.547C164.524 220.628 164.624 220.743 164.688 220.878L166.19 223.593L167.674 220.896C167.745 220.752 167.853 220.63 167.988 220.543C168.123 220.457 168.279 220.408 168.439 220.404C168.55 220.403 168.66 220.427 168.761 220.472C168.863 220.518 168.954 220.584 169.027 220.667C169.109 220.75 169.173 220.847 169.217 220.954C169.261 221.061 169.283 221.176 169.282 221.291C169.279 221.443 169.237 221.591 169.159 221.722L167.569 224.269L170.661 224.173C170.777 224.165 170.893 224.183 171.001 224.225C171.109 224.268 171.206 224.334 171.285 224.419C171.435 224.574 171.517 224.783 171.513 224.998C171.513 225.216 171.431 225.426 171.285 225.587C171.204 225.669 171.106 225.732 170.999 225.773C170.891 225.814 170.776 225.831 170.661 225.824L167.552 225.727L169.098 228.231C169.184 228.371 169.23 228.532 169.229 228.697C169.229 228.93 169.137 229.153 168.972 229.318C168.807 229.483 168.584 229.575 168.351 229.575C168.2 229.573 168.054 229.527 167.929 229.443C167.804 229.359 167.706 229.24 167.648 229.101L166.181 226.465L164.723 229.101C164.656 229.235 164.553 229.349 164.426 229.429C164.299 229.51 164.153 229.554 164.002 229.558Z" fill="white"/>
<path d="M178.26 229.558C178.03 229.557 177.809 229.465 177.645 229.303C177.559 229.226 177.49 229.131 177.443 229.025C177.396 228.919 177.372 228.804 177.373 228.688C177.376 228.529 177.421 228.375 177.505 228.24L179.086 225.71L176.011 225.807C175.846 225.813 175.682 225.77 175.541 225.684C175.4 225.597 175.288 225.47 175.219 225.319C175.15 225.168 175.128 225.001 175.155 224.837C175.182 224.674 175.257 224.522 175.37 224.401C175.453 224.316 175.553 224.251 175.664 224.208C175.775 224.166 175.893 224.148 176.011 224.155L179.042 224.269L177.478 221.748C177.393 221.611 177.348 221.453 177.347 221.291C177.349 221.176 177.375 221.062 177.422 220.957C177.468 220.851 177.535 220.756 177.619 220.676C177.783 220.514 178.003 220.422 178.234 220.422C178.382 220.424 178.527 220.468 178.651 220.549C178.775 220.63 178.874 220.744 178.937 220.878L180.439 223.593L181.924 220.896C181.994 220.752 182.102 220.63 182.237 220.543C182.372 220.457 182.528 220.408 182.688 220.404C182.799 220.403 182.909 220.427 183.011 220.472C183.112 220.518 183.203 220.584 183.276 220.667C183.358 220.75 183.422 220.847 183.466 220.954C183.51 221.061 183.532 221.176 183.531 221.291C183.528 221.443 183.486 221.591 183.408 221.722L181.818 224.269L184.91 224.155C185.024 224.144 185.139 224.157 185.247 224.194C185.355 224.23 185.454 224.29 185.538 224.368C185.621 224.446 185.686 224.541 185.73 224.647C185.773 224.753 185.793 224.867 185.789 224.981C185.791 225.197 185.712 225.407 185.569 225.569C185.486 225.651 185.387 225.715 185.278 225.756C185.169 225.796 185.053 225.814 184.937 225.807L181.836 225.71L183.373 228.214C183.46 228.353 183.505 228.515 183.505 228.679C183.502 228.795 183.477 228.908 183.43 229.014C183.383 229.119 183.316 229.215 183.232 229.294C183.156 229.376 183.064 229.442 182.961 229.487C182.858 229.533 182.747 229.557 182.635 229.558C182.486 229.555 182.34 229.509 182.217 229.424C182.094 229.34 181.998 229.222 181.941 229.083L180.465 226.448L179.007 229.083C178.941 229.226 178.836 229.346 178.703 229.43C178.571 229.514 178.417 229.559 178.26 229.558Z" fill="white"/>
<path d="M192.509 229.558C192.279 229.557 192.058 229.465 191.894 229.303C191.729 229.141 191.634 228.92 191.631 228.688C191.628 228.53 191.671 228.374 191.754 228.24L193.335 225.71L190.26 225.807C190.143 225.812 190.026 225.794 189.916 225.753C189.805 225.712 189.704 225.65 189.619 225.569C189.476 225.408 189.396 225.201 189.396 224.985C189.396 224.77 189.476 224.562 189.619 224.401C189.704 224.319 189.804 224.255 189.914 224.213C190.025 224.17 190.142 224.151 190.26 224.155L193.3 224.269L191.745 221.748C191.66 221.611 191.614 221.453 191.613 221.291C191.616 221.176 191.641 221.062 191.688 220.957C191.735 220.851 191.802 220.756 191.885 220.676C192.049 220.514 192.27 220.422 192.5 220.422C192.65 220.422 192.796 220.466 192.922 220.547C193.048 220.628 193.149 220.743 193.212 220.878L194.705 223.593L196.19 220.896C196.26 220.752 196.369 220.63 196.503 220.543C196.638 220.457 196.794 220.408 196.954 220.404C197.065 220.403 197.175 220.427 197.277 220.472C197.378 220.518 197.469 220.584 197.543 220.667C197.624 220.75 197.689 220.847 197.732 220.954C197.776 221.061 197.798 221.176 197.797 221.291C197.794 221.443 197.752 221.591 197.674 221.722L196.084 224.269L199.177 224.155C199.29 224.144 199.405 224.157 199.513 224.194C199.622 224.23 199.721 224.29 199.804 224.368C199.887 224.446 199.953 224.541 199.996 224.647C200.039 224.753 200.059 224.867 200.055 224.981C200.057 225.197 199.979 225.407 199.836 225.569C199.753 225.651 199.654 225.715 199.545 225.756C199.436 225.796 199.319 225.814 199.203 225.807L196.102 225.71L197.639 228.214C197.726 228.353 197.772 228.515 197.771 228.679C197.772 228.795 197.748 228.91 197.701 229.016C197.654 229.122 197.585 229.217 197.499 229.294C197.422 229.376 197.33 229.442 197.227 229.487C197.125 229.533 197.014 229.557 196.901 229.558C196.752 229.555 196.607 229.509 196.483 229.424C196.36 229.34 196.264 229.222 196.207 229.083L194.732 226.448L193.273 229.083C193.206 229.228 193.098 229.351 192.962 229.435C192.827 229.519 192.669 229.562 192.509 229.558Z" fill="white"/>
<path d="M206.758 229.558C206.528 229.557 206.307 229.465 206.143 229.303C206.007 229.165 205.92 228.986 205.897 228.794C205.873 228.602 205.913 228.407 206.011 228.24L207.584 225.71L204.509 225.807C204.392 225.812 204.275 225.794 204.165 225.753C204.054 225.712 203.953 225.65 203.868 225.569C203.725 225.409 203.646 225.201 203.646 224.985C203.646 224.77 203.725 224.562 203.868 224.401C203.953 224.319 204.053 224.255 204.164 224.213C204.274 224.17 204.391 224.151 204.509 224.155L207.549 224.269L205.985 221.748C205.9 221.611 205.854 221.453 205.853 221.291C205.857 221.059 205.951 220.838 206.117 220.676C206.28 220.514 206.501 220.422 206.732 220.422C206.881 220.423 207.028 220.466 207.154 220.547C207.28 220.628 207.38 220.743 207.443 220.878L208.937 223.593L210.421 220.896C210.492 220.752 210.6 220.63 210.735 220.543C210.87 220.457 211.025 220.408 211.186 220.404C211.298 220.403 211.409 220.427 211.512 220.472C211.615 220.517 211.708 220.584 211.783 220.667C211.944 220.835 212.033 221.059 212.029 221.291C212.026 221.443 211.983 221.591 211.906 221.722L210.316 224.269L213.408 224.155C213.522 224.144 213.637 224.157 213.745 224.194C213.853 224.23 213.952 224.29 214.035 224.368C214.119 224.446 214.184 224.541 214.227 224.647C214.271 224.753 214.291 224.867 214.287 224.981C214.288 225.197 214.21 225.407 214.067 225.569C213.984 225.651 213.885 225.715 213.776 225.756C213.667 225.796 213.551 225.814 213.434 225.807L210.333 225.71L211.871 228.214C211.957 228.353 212.003 228.515 212.003 228.679C212.003 228.795 211.98 228.91 211.933 229.016C211.886 229.122 211.817 229.217 211.73 229.294C211.654 229.376 211.561 229.442 211.459 229.487C211.356 229.533 211.245 229.557 211.133 229.558C210.984 229.555 210.838 229.509 210.715 229.424C210.591 229.34 210.496 229.222 210.439 229.083L208.963 226.448L207.505 229.083C207.439 229.226 207.334 229.346 207.201 229.43C207.069 229.514 206.915 229.559 206.758 229.558Z" fill="white"/>
<path d="M221.006 229.558C220.779 229.554 220.562 229.463 220.4 229.303C220.314 229.226 220.245 229.131 220.198 229.025C220.151 228.919 220.127 228.804 220.128 228.688C220.131 228.529 220.176 228.375 220.26 228.24L221.832 225.71L218.757 225.807C218.644 225.815 218.531 225.8 218.424 225.762C218.317 225.724 218.219 225.665 218.136 225.587C218.054 225.51 217.988 225.415 217.944 225.311C217.9 225.207 217.877 225.094 217.879 224.981C217.878 224.873 217.899 224.767 217.94 224.667C217.98 224.568 218.04 224.477 218.116 224.401C218.197 224.316 218.296 224.25 218.405 224.208C218.514 224.165 218.632 224.147 218.749 224.155L221.788 224.269L220.225 221.748C220.139 221.611 220.094 221.453 220.093 221.291C220.096 221.059 220.191 220.838 220.356 220.676C220.52 220.514 220.741 220.422 220.971 220.422C221.121 220.423 221.267 220.466 221.393 220.547C221.519 220.628 221.62 220.743 221.683 220.878L223.176 223.593L224.67 220.896C224.739 220.753 224.846 220.632 224.979 220.546C225.112 220.459 225.266 220.41 225.425 220.404C225.538 220.403 225.649 220.427 225.752 220.472C225.855 220.517 225.947 220.584 226.022 220.667C226.184 220.835 226.272 221.059 226.268 221.291C226.268 221.442 226.229 221.59 226.154 221.722L224.564 224.269L227.648 224.155C227.765 224.147 227.882 224.165 227.991 224.208C228.101 224.25 228.199 224.316 228.28 224.401C228.43 224.557 228.512 224.765 228.509 224.981C228.508 225.199 228.427 225.408 228.28 225.569C228.197 225.651 228.098 225.715 227.989 225.756C227.88 225.796 227.764 225.814 227.648 225.807L224.547 225.71L226.084 228.214C226.171 228.353 226.216 228.515 226.216 228.679C226.212 228.911 226.118 229.132 225.952 229.294C225.792 229.458 225.575 229.552 225.346 229.558C225.197 229.555 225.051 229.509 224.928 229.424C224.805 229.34 224.709 229.222 224.652 229.083L223.176 226.448L221.718 229.083C221.655 229.22 221.555 229.337 221.429 229.421C221.304 229.505 221.157 229.552 221.006 229.558Z" fill="white"/>
<g style="mix-blend-mode:multiply">
<path d="M265.326 51.5875H109.818V61.3297H265.326V51.5875Z" fill="#074BB3"/>
</g>
<path d="M196.796 317.063C196.798 315.237 196.258 313.453 195.245 311.935C194.232 310.416 192.792 309.233 191.106 308.534C189.42 307.834 187.565 307.651 185.775 308.007C183.985 308.362 182.34 309.241 181.05 310.531C179.759 311.822 178.881 313.466 178.525 315.256C178.169 317.046 178.353 318.902 179.052 320.588C179.751 322.273 180.935 323.714 182.453 324.727C183.971 325.74 185.756 326.279 187.581 326.278C190.024 326.275 192.367 325.304 194.094 323.576C195.822 321.848 196.794 319.506 196.796 317.063Z" fill="white"/>
<path d="M192.254 312.389H182.907V321.736H192.254V312.389Z" fill="white" stroke="#263238" stroke-width="1.33739" stroke-linecap="round" stroke-linejoin="round"/>
<path d="M298.919 210.996C298.919 210.996 286.673 179.88 297.575 176.182C308.924 172.325 308.424 192.873 307.984 202.887C307.062 224.287 304.699 228.266 302.933 223.039L298.919 210.996ZM295.238 235.268C298.602 239.66 299.551 235.11 293.481 214.562C290.635 204.899 284.45 185.353 274.963 192.688C265.853 199.716 287.534 225.192 287.534 225.192L295.238 235.268ZM288.737 253.101C291.944 255.947 292.005 252.354 284.389 237.517C280.813 230.568 273.25 216.504 267.056 223.461C261.109 230.173 281.375 246.486 281.375 246.486L288.737 253.101ZM281.709 274.307C284.916 277.162 284.977 273.56 277.361 258.732C273.785 251.783 266.222 237.71 260.029 244.676C254.116 251.405 274.321 267.719 274.321 267.719L281.709 274.307ZM302.002 231.139C296.872 233.142 300.948 235.32 322.374 235.259C332.424 235.259 352.945 234.802 348.57 223.637C344.38 212.911 313.861 226.571 313.861 226.571L302.002 231.139ZM296.16 245.405C290.731 246.345 294.298 249.297 315.311 253.496C325.159 255.473 345.355 259.118 343.29 247.347C341.314 235.997 308.687 243.323 308.687 243.323L296.16 245.405ZM289.624 262.826C285.004 263.493 287.955 266.067 305.621 270.108C313.905 272.006 330.904 275.563 329.428 265.522C328.022 255.859 300.263 261.323 300.263 261.323L289.624 262.826ZM284.661 278.963C280.137 280.114 283.343 282.363 301.352 284.506C309.785 285.508 327.065 287.247 324.544 277.417C322.11 267.982 295.088 276.336 295.088 276.336L284.661 278.963ZM311.138 213.631C308.503 219.534 313.976 218.638 332.582 202.404C341.296 194.788 358.778 178.852 344.933 170.919C331.642 163.294 317.349 200.085 317.349 200.085L311.138 213.631ZM285.346 299.985C282.561 301.61 285.293 302.243 298.066 299.695C304.058 298.509 316.242 295.874 312.122 290.673C308.134 285.666 291.794 296.208 291.794 296.208L285.346 299.985Z" fill="#92E3A9"/>
<path opacity="0.3" d="M298.919 210.996C298.919 210.996 286.673 179.88 297.575 176.182C308.924 172.325 308.424 192.873 307.984 202.887C307.062 224.287 304.699 228.266 302.933 223.039L298.919 210.996ZM295.238 235.268C298.602 239.66 299.551 235.11 293.481 214.562C290.635 204.899 284.45 185.353 274.963 192.688C265.853 199.716 287.534 225.192 287.534 225.192L295.238 235.268ZM288.737 253.101C291.944 255.947 292.005 252.354 284.389 237.517C280.813 230.568 273.25 216.504 267.056 223.461C261.109 230.173 281.375 246.486 281.375 246.486L288.737 253.101ZM281.709 274.307C284.916 277.162 284.977 273.56 277.361 258.732C273.785 251.783 266.222 237.71 260.029 244.676C254.116 251.405 274.321 267.719 274.321 267.719L281.709 274.307ZM302.002 231.139C296.872 233.142 300.948 235.32 322.374 235.259C332.424 235.259 352.945 234.802 348.57 223.637C344.38 212.911 313.861 226.571 313.861 226.571L302.002 231.139ZM296.16 245.405C290.731 246.345 294.298 249.297 315.311 253.496C325.159 255.473 345.355 259.118 343.29 247.347C341.314 235.997 308.687 243.323 308.687 243.323L296.16 245.405ZM289.624 262.826C285.004 263.493 287.955 266.067 305.621 270.108C313.905 272.006 330.904 275.563 329.428 265.522C328.022 255.859 300.263 261.323 300.263 261.323L289.624 262.826ZM284.661 278.963C280.137 280.114 283.343 282.363 301.352 284.506C309.785 285.508 327.065 287.247 324.544 277.417C322.11 267.982 295.088 276.336 295.088 276.336L284.661 278.963ZM311.138 213.631C308.503 219.534 313.976 218.638 332.582 202.404C341.296 194.788 358.778 178.852 344.933 170.919C331.642 163.294 317.349 200.085 317.349 200.085L311.138 213.631ZM285.346 299.985C282.561 301.61 285.293 302.243 298.066 299.695C304.058 298.509 316.242 295.874 312.122 290.673C308.134 285.666 291.794 296.208 291.794 296.208L285.346 299.985Z" fill="white"/>
<path d="M304.321 225.482L302.187 189.965L304.321 225.482ZM297.566 237.2L284.072 206.656L297.566 237.2ZM332.389 228.319L300.052 232.957L332.389 228.319ZM290.573 253.663L273.065 231.2L290.573 253.663ZM293.648 246.776L317.771 247.988L293.648 246.776ZM287.938 264.003L306.386 265.83L287.938 264.003ZM283.484 274.948L274.321 261.165L283.484 274.948ZM282.43 279.815L304.119 280.017L282.43 279.815ZM278.037 320.506C278.183 320.495 278.318 320.427 278.413 320.317C278.508 320.206 278.556 320.063 278.547 319.918C277.168 299.203 285.179 265.276 298.031 237.429C306.245 219.631 338.441 184.65 338.784 184.299C338.887 184.195 338.945 184.054 338.945 183.908C338.945 183.761 338.887 183.621 338.784 183.517C338.733 183.466 338.673 183.425 338.607 183.398C338.54 183.37 338.469 183.356 338.397 183.356C338.325 183.356 338.254 183.37 338.188 183.398C338.122 183.425 338.061 183.466 338.011 183.517C337.686 183.868 305.358 218.981 297.074 236.937C283.985 265.461 276.078 298.773 277.484 319.988C277.495 320.128 277.558 320.258 277.66 320.354C277.762 320.45 277.897 320.504 278.037 320.506ZM304.312 226.026C304.458 226.017 304.594 225.951 304.691 225.843C304.788 225.734 304.838 225.592 304.831 225.446L302.731 189.912C302.728 189.84 302.71 189.769 302.679 189.703C302.648 189.638 302.604 189.58 302.55 189.531C302.496 189.483 302.433 189.446 302.365 189.422C302.296 189.399 302.224 189.389 302.151 189.394C302.006 189.403 301.87 189.469 301.773 189.577C301.676 189.686 301.626 189.828 301.633 189.974L303.768 225.49C303.775 225.63 303.835 225.762 303.936 225.859C304.038 225.955 304.172 226.009 304.312 226.009V226.026ZM297.759 237.701C297.891 237.642 297.994 237.533 298.046 237.398C298.099 237.264 298.097 237.114 298.04 236.981L284.538 206.436C284.48 206.303 284.371 206.199 284.236 206.146C284.101 206.094 283.95 206.097 283.818 206.155C283.685 206.213 283.581 206.322 283.528 206.457C283.475 206.592 283.478 206.743 283.537 206.875L297.03 237.42C297.072 237.518 297.142 237.602 297.231 237.661C297.32 237.72 297.424 237.752 297.531 237.754C297.622 237.759 297.712 237.74 297.794 237.701H297.759ZM300.096 233.484L332.415 228.864C332.493 228.862 332.57 228.844 332.64 228.811C332.711 228.777 332.774 228.729 332.824 228.67C332.875 228.61 332.912 228.541 332.934 228.466C332.956 228.391 332.962 228.313 332.952 228.235C332.941 228.158 332.914 228.084 332.873 228.017C332.832 227.951 332.777 227.894 332.712 227.851C332.647 227.807 332.574 227.778 332.497 227.765C332.42 227.752 332.341 227.755 332.266 227.774L299.946 232.395C299.802 232.404 299.667 232.471 299.572 232.58C299.476 232.688 299.428 232.831 299.437 232.975C299.446 233.119 299.513 233.254 299.621 233.35C299.73 233.445 299.872 233.494 300.017 233.484H300.096ZM290.881 254.102C290.995 254.012 291.07 253.88 291.088 253.736C291.106 253.591 291.066 253.445 290.977 253.329L273.46 230.823C273.371 230.706 273.238 230.63 273.093 230.611C272.947 230.592 272.799 230.632 272.683 230.722C272.566 230.811 272.49 230.944 272.471 231.089C272.452 231.235 272.492 231.383 272.582 231.499L290.134 254.041C290.185 254.106 290.25 254.16 290.325 254.196C290.399 254.233 290.481 254.252 290.564 254.252C290.695 254.245 290.82 254.192 290.916 254.102H290.881ZM318.254 248.014C318.259 247.869 318.206 247.728 318.107 247.621C318.009 247.514 317.872 247.45 317.727 247.443L293.648 246.222C293.512 246.232 293.385 246.29 293.29 246.387C293.195 246.484 293.139 246.612 293.133 246.748C293.126 246.883 293.17 247.017 293.255 247.122C293.34 247.228 293.461 247.298 293.595 247.32L317.718 248.542C317.863 248.546 318.005 248.494 318.112 248.395C318.218 248.296 318.282 248.16 318.289 248.014H318.254ZM306.895 265.883C306.904 265.81 306.898 265.737 306.877 265.667C306.857 265.597 306.823 265.532 306.777 265.476C306.731 265.419 306.675 265.372 306.61 265.338C306.546 265.304 306.476 265.283 306.403 265.276L287.955 263.458C287.884 263.451 287.811 263.458 287.742 263.479C287.674 263.499 287.61 263.534 287.554 263.579C287.498 263.625 287.453 263.682 287.419 263.745C287.385 263.809 287.364 263.878 287.358 263.95C287.346 264.094 287.39 264.237 287.482 264.349C287.574 264.461 287.706 264.532 287.85 264.547L306.298 266.375H306.351C306.492 266.384 306.632 266.338 306.74 266.247C306.849 266.155 306.917 266.024 306.93 265.883H306.895ZM283.747 275.405C283.869 275.325 283.954 275.199 283.984 275.056C284.014 274.913 283.985 274.763 283.905 274.641L274.787 260.858C274.703 260.739 274.577 260.657 274.435 260.629C274.292 260.602 274.145 260.63 274.023 260.708C273.901 260.789 273.816 260.915 273.786 261.058C273.756 261.201 273.785 261.35 273.865 261.473L282.983 275.256C283.035 275.331 283.105 275.393 283.186 275.436C283.267 275.479 283.357 275.501 283.449 275.502C283.568 275.508 283.685 275.474 283.782 275.405H283.747ZM304.673 280.017C304.67 279.873 304.613 279.735 304.511 279.631C304.41 279.528 304.272 279.468 304.128 279.464L282.438 279.262C282.294 279.262 282.155 279.319 282.053 279.421C281.951 279.523 281.894 279.662 281.894 279.806C281.891 279.879 281.904 279.951 281.93 280.019C281.957 280.087 281.996 280.148 282.047 280.2C282.098 280.252 282.159 280.293 282.226 280.32C282.294 280.348 282.366 280.361 282.438 280.36L304.128 280.562C304.202 280.565 304.276 280.554 304.346 280.528C304.415 280.503 304.479 280.463 304.533 280.413C304.587 280.362 304.631 280.301 304.661 280.233C304.691 280.165 304.707 280.092 304.708 280.017H304.673ZM275.569 312.451C275.613 312.354 279.311 302.164 290.433 299.73C290.576 299.699 290.701 299.612 290.78 299.488C290.859 299.365 290.886 299.215 290.854 299.071C290.819 298.931 290.73 298.81 290.608 298.733C290.485 298.656 290.337 298.629 290.195 298.659C278.468 301.224 274.576 311.985 274.532 312.09C274.487 312.229 274.497 312.38 274.561 312.511C274.625 312.642 274.738 312.743 274.875 312.793H275.05C275.167 312.803 275.284 312.775 275.384 312.714C275.484 312.652 275.561 312.56 275.604 312.451H275.569ZM278.037 320.506C278.183 320.495 278.318 320.427 278.413 320.317C278.508 320.206 278.556 320.063 278.547 319.918C277.168 299.203 285.179 265.276 298.031 237.429C306.245 219.631 338.441 184.65 338.784 184.299C338.887 184.195 338.945 184.054 338.945 183.908C338.945 183.761 338.887 183.621 338.784 183.517C338.733 183.466 338.673 183.425 338.607 183.398C338.54 183.37 338.469 183.356 338.397 183.356C338.325 183.356 338.254 183.37 338.188 183.398C338.122 183.425 338.061 183.466 338.011 183.517C337.686 183.868 305.358 218.981 297.074 236.937C283.985 265.461 276.078 298.773 277.484 319.988C277.495 320.128 277.558 320.258 277.66 320.354C277.762 320.45 277.897 320.504 278.037 320.506ZM304.312 226.026C304.458 226.017 304.594 225.951 304.691 225.843C304.788 225.734 304.838 225.592 304.831 225.446L302.731 189.912C302.728 189.84 302.71 189.769 302.679 189.703C302.648 189.638 302.604 189.58 302.55 189.531C302.496 189.483 302.433 189.446 302.365 189.422C302.296 189.399 302.224 189.389 302.151 189.394C302.006 189.403 301.87 189.469 301.773 189.577C301.676 189.686 301.626 189.828 301.633 189.974L303.768 225.49C303.775 225.63 303.835 225.762 303.936 225.859C304.038 225.955 304.172 226.009 304.312 226.009V226.026ZM297.759 237.701C297.891 237.642 297.994 237.533 298.046 237.398C298.099 237.264 298.097 237.114 298.04 236.981L284.538 206.436C284.48 206.303 284.371 206.199 284.236 206.146C284.101 206.094 283.95 206.097 283.818 206.155C283.685 206.213 283.581 206.322 283.528 206.457C283.475 206.592 283.478 206.743 283.537 206.875L297.03 237.42C297.072 237.518 297.142 237.602 297.231 237.661C297.32 237.72 297.424 237.752 297.531 237.754C297.622 237.759 297.712 237.74 297.794 237.701H297.759ZM300.096 233.484L332.415 228.864C332.493 228.862 332.57 228.844 332.64 228.811C332.711 228.777 332.774 228.729 332.824 228.67C332.875 228.61 332.912 228.541 332.934 228.466C332.956 228.391 332.962 228.313 332.952 228.235C332.941 228.158 332.914 228.084 332.873 228.017C332.832 227.951 332.777 227.894 332.712 227.851C332.647 227.807 332.574 227.778 332.497 227.765C332.42 227.752 332.341 227.755 332.266 227.774L299.946 232.395C299.802 232.404 299.667 232.471 299.572 232.58C299.476 232.688 299.428 232.831 299.437 232.975C299.446 233.119 299.513 233.254 299.621 233.35C299.73 233.445 299.872 233.494 300.017 233.484H300.096ZM290.881 254.102C290.995 254.012 291.07 253.88 291.088 253.736C291.106 253.591 291.066 253.445 290.977 253.329L273.46 230.823C273.416 230.765 273.361 230.717 273.298 230.68C273.234 230.644 273.165 230.621 273.093 230.611C273.02 230.602 272.947 230.607 272.877 230.626C272.807 230.645 272.741 230.677 272.683 230.722C272.625 230.766 272.577 230.821 272.541 230.885C272.504 230.948 272.481 231.017 272.471 231.089C272.462 231.162 272.467 231.235 272.486 231.305C272.505 231.376 272.538 231.441 272.582 231.499L290.134 254.041C290.185 254.106 290.25 254.16 290.325 254.196C290.399 254.233 290.481 254.252 290.564 254.252C290.695 254.245 290.82 254.192 290.916 254.102H290.881ZM318.254 248.014C318.259 247.869 318.206 247.728 318.107 247.621C318.009 247.514 317.872 247.45 317.727 247.443L293.648 246.222C293.512 246.232 293.385 246.29 293.29 246.387C293.195 246.484 293.139 246.612 293.133 246.748C293.126 246.883 293.17 247.017 293.255 247.122C293.34 247.228 293.461 247.298 293.595 247.32L317.718 248.542C317.863 248.546 318.005 248.494 318.112 248.395C318.218 248.296 318.282 248.16 318.289 248.014H318.254ZM306.895 265.883C306.904 265.81 306.898 265.737 306.877 265.667C306.857 265.597 306.823 265.532 306.777 265.476C306.731 265.419 306.675 265.372 306.61 265.338C306.546 265.304 306.476 265.283 306.403 265.276L287.955 263.458C287.884 263.451 287.811 263.458 287.742 263.479C287.674 263.499 287.61 263.534 287.554 263.579C287.498 263.625 287.453 263.682 287.419 263.745C287.385 263.809 287.364 263.878 287.358 263.95C287.346 264.094 287.39 264.237 287.482 264.349C287.574 264.461 287.706 264.532 287.85 264.547L306.298 266.375H306.351C306.492 266.384 306.632 266.338 306.74 266.247C306.849 266.155 306.917 266.024 306.93 265.883H306.895ZM283.747 275.405C283.869 275.325 283.954 275.199 283.984 275.056C284.014 274.913 283.985 274.763 283.905 274.641L274.787 260.858C274.703 260.739 274.577 260.657 274.435 260.629C274.292 260.602 274.145 260.63 274.023 260.708C273.901 260.789 273.816 260.915 273.786 261.058C273.756 261.201 273.785 261.35 273.865 261.473L282.983 275.256C283.035 275.331 283.105 275.393 283.186 275.436C283.267 275.479 283.357 275.501 283.449 275.502C283.568 275.508 283.685 275.474 283.782 275.405H283.747ZM304.673 280.017C304.67 279.873 304.613 279.735 304.511 279.631C304.41 279.528 304.272 279.468 304.128 279.464L282.438 279.262C282.294 279.262 282.155 279.319 282.053 279.421C281.951 279.523 281.894 279.662 281.894 279.806C281.891 279.879 281.904 279.951 281.93 280.019C281.957 280.087 281.996 280.148 282.047 280.2C282.098 280.252 282.159 280.293 282.226 280.32C282.294 280.348 282.366 280.361 282.438 280.36L304.128 280.562C304.202 280.565 304.276 280.554 304.346 280.528C304.415 280.503 304.479 280.463 304.533 280.413C304.587 280.362 304.631 280.301 304.661 280.233C304.691 280.165 304.707 280.092 304.708 280.017H304.673ZM275.569 312.451C275.613 312.354 279.311 302.164 290.433 299.73C290.576 299.699 290.701 299.612 290.78 299.488C290.859 299.365 290.886 299.215 290.854 299.071C290.819 298.931 290.73 298.81 290.608 298.733C290.485 298.656 290.337 298.629 290.195 298.659C278.468 301.224 274.576 311.985 274.532 312.09C274.487 312.229 274.497 312.38 274.561 312.511C274.625 312.642 274.738 312.743 274.875 312.793H275.05C275.167 312.803 275.284 312.775 275.384 312.714C275.484 312.652 275.561 312.56 275.604 312.451H275.569Z" fill="#92E3A9"/>
<path opacity="0.2" d="M304.321 225.482L302.187 189.965L304.321 225.482ZM297.566 237.2L284.072 206.656L297.566 237.2ZM332.389 228.319L300.052 232.957L332.389 228.319ZM290.573 253.663L273.065 231.2L290.573 253.663ZM293.648 246.776L317.771 247.988L293.648 246.776ZM287.938 264.003L306.386 265.83L287.938 264.003ZM283.484 274.948L274.321 261.165L283.484 274.948ZM282.43 279.815L304.119 280.017L282.43 279.815ZM278.037 320.506C278.183 320.495 278.318 320.427 278.413 320.317C278.508 320.206 278.556 320.063 278.547 319.918C277.168 299.203 285.179 265.276 298.031 237.429C306.245 219.631 338.441 184.65 338.784 184.299C338.887 184.195 338.945 184.054 338.945 183.908C338.945 183.761 338.887 183.621 338.784 183.517C338.733 183.466 338.673 183.425 338.607 183.398C338.54 183.37 338.469 183.356 338.397 183.356C338.325 183.356 338.254 183.37 338.188 183.398C338.122 183.425 338.061 183.466 338.011 183.517C337.686 183.868 305.358 218.981 297.074 236.937C283.985 265.461 276.078 298.773 277.484 319.988C277.495 320.128 277.558 320.258 277.66 320.354C277.762 320.45 277.897 320.504 278.037 320.506ZM304.312 226.026C304.458 226.017 304.594 225.951 304.691 225.843C304.788 225.734 304.838 225.592 304.831 225.446L302.731 189.912C302.728 189.84 302.71 189.769 302.679 189.703C302.648 189.638 302.604 189.58 302.55 189.531C302.496 189.483 302.433 189.446 302.365 189.422C302.296 189.399 302.224 189.389 302.151 189.394C302.006 189.403 301.87 189.469 301.773 189.577C301.676 189.686 301.626 189.828 301.633 189.974L303.768 225.49C303.775 225.63 303.835 225.762 303.936 225.859C304.038 225.955 304.172 226.009 304.312 226.009V226.026ZM297.759 237.701C297.891 237.642 297.994 237.533 298.046 237.398C298.099 237.264 298.097 237.114 298.04 236.981L284.538 206.436C284.48 206.303 284.371 206.199 284.236 206.146C284.101 206.094 283.95 206.097 283.818 206.155C283.685 206.213 283.581 206.322 283.528 206.457C283.475 206.592 283.478 206.743 283.537 206.875L297.03 237.42C297.072 237.518 297.142 237.602 297.231 237.661C297.32 237.72 297.424 237.752 297.531 237.754C297.622 237.759 297.712 237.74 297.794 237.701H297.759ZM300.096 233.484L332.415 228.864C332.493 228.862 332.57 228.844 332.64 228.811C332.711 228.777 332.774 228.729 332.824 228.67C332.875 228.61 332.912 228.541 332.934 228.466C332.956 228.391 332.962 228.313 332.952 228.235C332.941 228.158 332.914 228.084 332.873 228.017C332.832 227.951 332.777 227.894 332.712 227.851C332.647 227.807 332.574 227.778 332.497 227.765C332.42 227.752 332.341 227.755 332.266 227.774L299.946 232.395C299.802 232.404 299.667 232.471 299.572 232.58C299.476 232.688 299.428 232.831 299.437 232.975C299.446 233.119 299.513 233.254 299.621 233.35C299.73 233.445 299.872 233.494 300.017 233.484H300.096ZM290.881 254.102C290.995 254.012 291.07 253.88 291.088 253.736C291.106 253.591 291.066 253.445 290.977 253.329L273.46 230.823C273.371 230.706 273.238 230.63 273.093 230.611C272.947 230.592 272.799 230.632 272.683 230.722C272.566 230.811 272.49 230.944 272.471 231.089C272.452 231.235 272.492 231.383 272.582 231.499L290.134 254.041C290.185 254.106 290.25 254.16 290.325 254.196C290.399 254.233 290.481 254.252 290.564 254.252C290.695 254.245 290.82 254.192 290.916 254.102H290.881ZM318.254 248.014C318.259 247.869 318.206 247.728 318.107 247.621C318.009 247.514 317.872 247.45 317.727 247.443L293.648 246.222C293.512 246.232 293.385 246.29 293.29 246.387C293.195 246.484 293.139 246.612 293.133 246.748C293.126 246.883 293.17 247.017 293.255 247.122C293.34 247.228 293.461 247.298 293.595 247.32L317.718 248.542C317.863 248.546 318.005 248.494 318.112 248.395C318.218 248.296 318.282 248.16 318.289 248.014H318.254ZM306.895 265.883C306.904 265.81 306.898 265.737 306.877 265.667C306.857 265.597 306.823 265.532 306.777 265.476C306.731 265.419 306.675 265.372 306.61 265.338C306.546 265.304 306.476 265.283 306.403 265.276L287.955 263.458C287.884 263.451 287.811 263.458 287.742 263.479C287.674 263.499 287.61 263.534 287.554 263.579C287.498 263.625 287.453 263.682 287.419 263.745C287.385 263.809 287.364 263.878 287.358 263.95C287.346 264.094 287.39 264.237 287.482 264.349C287.574 264.461 287.706 264.532 287.85 264.547L306.298 266.375H306.351C306.492 266.384 306.632 266.338 306.74 266.247C306.849 266.155 306.917 266.024 306.93 265.883H306.895ZM283.747 275.405C283.869 275.325 283.954 275.199 283.984 275.056C284.014 274.913 283.985 274.763 283.905 274.641L274.787 260.858C274.703 260.739 274.577 260.657 274.435 260.629C274.292 260.602 274.145 260.63 274.023 260.708C273.901 260.789 273.816 260.915 273.786 261.058C273.756 261.201 273.785 261.35 273.865 261.473L282.983 275.256C283.035 275.331 283.105 275.393 283.186 275.436C283.267 275.479 283.357 275.501 283.449 275.502C283.568 275.508 283.685 275.474 283.782 275.405H283.747ZM304.673 280.017C304.67 279.873 304.613 279.735 304.511 279.631C304.41 279.528 304.272 279.468 304.128 279.464L282.438 279.262C282.294 279.262 282.155 279.319 282.053 279.421C281.951 279.523 281.894 279.662 281.894 279.806C281.891 279.879 281.904 279.951 281.93 280.019C281.957 280.087 281.996 280.148 282.047 280.2C282.098 280.252 282.159 280.293 282.226 280.32C282.294 280.348 282.366 280.361 282.438 280.36L304.128 280.562C304.202 280.565 304.276 280.554 304.346 280.528C304.415 280.503 304.479 280.463 304.533 280.413C304.587 280.362 304.631 280.301 304.661 280.233C304.691 280.165 304.707 280.092 304.708 280.017H304.673ZM275.569 312.451C275.613 312.354 279.311 302.164 290.433 299.73C290.576 299.699 290.701 299.612 290.78 299.488C290.859 299.365 290.886 299.215 290.854 299.071C290.819 298.931 290.73 298.81 290.608 298.733C290.485 298.656 290.337 298.629 290.195 298.659C278.468 301.224 274.576 311.985 274.532 312.09C274.487 312.229 274.497 312.38 274.561 312.511C274.625 312.642 274.738 312.743 274.875 312.793H275.05C275.167 312.803 275.284 312.775 275.384 312.714C275.484 312.652 275.561 312.56 275.604 312.451H275.569ZM278.037 320.506C278.183 320.495 278.318 320.427 278.413 320.317C278.508 320.206 278.556 320.063 278.547 319.918C277.168 299.203 285.179 265.276 298.031 237.429C306.245 219.631 338.441 184.65 338.784 184.299C338.887 184.195 338.945 184.054 338.945 183.908C338.945 183.761 338.887 183.621 338.784 183.517C338.733 183.466 338.673 183.425 338.607 183.398C338.54 183.37 338.469 183.356 338.397 183.356C338.325 183.356 338.254 183.37 338.188 183.398C338.122 183.425 338.061 183.466 338.011 183.517C337.686 183.868 305.358 218.981 297.074 236.937C283.985 265.461 276.078 298.773 277.484 319.988C277.495 320.128 277.558 320.258 277.66 320.354C277.762 320.45 277.897 320.504 278.037 320.506ZM304.312 226.026C304.458 226.017 304.594 225.951 304.691 225.843C304.788 225.734 304.838 225.592 304.831 225.446L302.731 189.912C302.728 189.84 302.71 189.769 302.679 189.703C302.648 189.638 302.604 189.58 302.55 189.531C302.496 189.483 302.433 189.446 302.365 189.422C302.296 189.399 302.224 189.389 302.151 189.394C302.006 189.403 301.87 189.469 301.773 189.577C301.676 189.686 301.626 189.828 301.633 189.974L303.768 225.49C303.775 225.63 303.835 225.762 303.936 225.859C304.038 225.955 304.172 226.009 304.312 226.009V226.026ZM297.759 237.701C297.891 237.642 297.994 237.533 298.046 237.398C298.099 237.264 298.097 237.114 298.04 236.981L284.538 206.436C284.48 206.303 284.371 206.199 284.236 206.146C284.101 206.094 283.95 206.097 283.818 206.155C283.685 206.213 283.581 206.322 283.528 206.457C283.475 206.592 283.478 206.743 283.537 206.875L297.03 237.42C297.072 237.518 297.142 237.602 297.231 237.661C297.32 237.72 297.424 237.752 297.531 237.754C297.622 237.759 297.712 237.74 297.794 237.701H297.759ZM300.096 233.484L332.415 228.864C332.493 228.862 332.57 228.844 332.64 228.811C332.711 228.777 332.774 228.729 332.824 228.67C332.875 228.61 332.912 228.541 332.934 228.466C332.956 228.391 332.962 228.313 332.952 228.235C332.941 228.158 332.914 228.084 332.873 228.017C332.832 227.951 332.777 227.894 332.712 227.851C332.647 227.807 332.574 227.778 332.497 227.765C332.42 227.752 332.341 227.755 332.266 227.774L299.946 232.395C299.802 232.404 299.667 232.471 299.572 232.58C299.476 232.688 299.428 232.831 299.437 232.975C299.446 233.119 299.513 233.254 299.621 233.35C299.73 233.445 299.872 233.494 300.017 233.484H300.096ZM290.881 254.102C290.995 254.012 291.07 253.88 291.088 253.736C291.106 253.591 291.066 253.445 290.977 253.329L273.46 230.823C273.416 230.765 273.361 230.717 273.298 230.68C273.234 230.644 273.165 230.621 273.093 230.611C273.02 230.602 272.947 230.607 272.877 230.626C272.807 230.645 272.741 230.677 272.683 230.722C272.625 230.766 272.577 230.821 272.541 230.885C272.504 230.948 272.481 231.017 272.471 231.089C272.462 231.162 272.467 231.235 272.486 231.305C272.505 231.376 272.538 231.441 272.582 231.499L290.134 254.041C290.185 254.106 290.25 254.16 290.325 254.196C290.399 254.233 290.481 254.252 290.564 254.252C290.695 254.245 290.82 254.192 290.916 254.102H290.881ZM318.254 248.014C318.259 247.869 318.206 247.728 318.107 247.621C318.009 247.514 317.872 247.45 317.727 247.443L293.648 246.222C293.512 246.232 293.385 246.29 293.29 246.387C293.195 246.484 293.139 246.612 293.133 246.748C293.126 246.883 293.17 247.017 293.255 247.122C293.34 247.228 293.461 247.298 293.595 247.32L317.718 248.542C317.863 248.546 318.005 248.494 318.112 248.395C318.218 248.296 318.282 248.16 318.289 248.014H318.254ZM306.895 265.883C306.904 265.81 306.898 265.737 306.877 265.667C306.857 265.597 306.823 265.532 306.777 265.476C306.731 265.419 306.675 265.372 306.61 265.338C306.546 265.304 306.476 265.283 306.403 265.276L287.955 263.458C287.884 263.451 287.811 263.458 287.742 263.479C287.674 263.499 287.61 263.534 287.554 263.579C287.498 263.625 287.453 263.682 287.419 263.745C287.385 263.809 287.364 263.878 287.358 263.95C287.346 264.094 287.39 264.237 287.482 264.349C287.574 264.461 287.706 264.532 287.85 264.547L306.298 266.375H306.351C306.492 266.384 306.632 266.338 306.74 266.247C306.849 266.155 306.917 266.024 306.93 265.883H306.895ZM283.747 275.405C283.869 275.325 283.954 275.199 283.984 275.056C284.014 274.913 283.985 274.763 283.905 274.641L274.787 260.858C274.703 260.739 274.577 260.657 274.435 260.629C274.292 260.602 274.145 260.63 274.023 260.708C273.901 260.789 273.816 260.915 273.786 261.058C273.756 261.201 273.785 261.35 273.865 261.473L282.983 275.256C283.035 275.331 283.105 275.393 283.186 275.436C283.267 275.479 283.357 275.501 283.449 275.502C283.568 275.508 283.685 275.474 283.782 275.405H283.747ZM304.673 280.017C304.67 279.873 304.613 279.735 304.511 279.631C304.41 279.528 304.272 279.468 304.128 279.464L282.438 279.262C282.294 279.262 282.155 279.319 282.053 279.421C281.951 279.523 281.894 279.662 281.894 279.806C281.891 279.879 281.904 279.951 281.93 280.019C281.957 280.087 281.996 280.148 282.047 280.2C282.098 280.252 282.159 280.293 282.226 280.32C282.294 280.348 282.366 280.361 282.438 280.36L304.128 280.562C304.202 280.565 304.276 280.554 304.346 280.528C304.415 280.503 304.479 280.463 304.533 280.413C304.587 280.362 304.631 280.301 304.661 280.233C304.691 280.165 304.707 280.092 304.708 280.017H304.673ZM275.569 312.451C275.613 312.354 279.311 302.164 290.433 299.73C290.576 299.699 290.701 299.612 290.78 299.488C290.859 299.365 290.886 299.215 290.854 299.071C290.819 298.931 290.73 298.81 290.608 298.733C290.485 298.656 290.337 298.629 290.195 298.659C278.468 301.224 274.576 311.985 274.532 312.09C274.487 312.229 274.497 312.38 274.561 312.511C274.625 312.642 274.738 312.743 274.875 312.793H275.05C275.167 312.803 275.284 312.775 275.384 312.714C275.484 312.652 275.561 312.56 275.604 312.451H275.569Z" fill="black"/>
<path d="M292.383 305.019H267.513V310.166H269.683L274.172 338.251H285.724L290.213 310.166H292.383V305.019Z" fill="#92E3A9"/>
<path opacity="0.3" d="M292.383 305.019H267.513V310.166H269.683L274.172 338.251H285.724L290.213 310.166H292.383V305.019Z" fill="#263238"/>
<path d="M68.4769 149.353L39.5487 139.909L36.9748 133.11L31.0978 132.925L20.4331 130.905L21.7157 133.11L35.1388 142.852L38.4506 144.504L68.7053 160.308L68.4769 149.353Z" fill="white" stroke="#263238" stroke-width="1.00396" stroke-miterlimit="10"/>
<path d="M36.9749 133.11L34.2165 131.458L28.7085 133.479L29.6221 134.577L36.9749 133.11Z" fill="white" stroke="#263238" stroke-width="1.00396" stroke-linejoin="round"/>
<path d="M68.4769 149.353L39.5487 139.909L36.9748 133.11L31.0978 132.925L20.4331 130.905L21.7157 133.11L35.1388 142.852L38.4506 144.504L68.7053 160.308L68.4769 149.353Z" fill="white"/>
<path opacity="0.5" d="M68.4769 149.353L39.5487 139.909L36.9748 133.11L31.0978 132.925L20.4331 130.905L21.7157 133.11L35.1388 142.852L38.4506 144.504L68.7053 160.308L68.4769 149.353Z" fill="#074BB3" stroke="#263238" stroke-width="1.00396" stroke-miterlimit="10"/>
<path d="M68.4769 149.353L39.5487 139.909L36.9748 133.11L31.0978 132.925L20.4331 130.905L21.7157 133.11L35.1388 142.852L38.4506 144.504L68.7053 160.308L68.4769 149.353Z" stroke="#263238" stroke-width="1.00396" stroke-miterlimit="10"/>
<path d="M36.9749 133.11L34.2165 131.458L28.7085 133.479L29.6221 134.577L36.9749 133.11Z" fill="white"/>
<path opacity="0.5" d="M36.9749 133.11L34.2165 131.458L28.7085 133.479L29.6221 134.577L36.9749 133.11Z" fill="#92E3A9" stroke="#263238" stroke-width="1.00396" stroke-linejoin="round"/>
<path d="M36.9749 133.11L34.2165 131.458L28.7085 133.479L29.6221 134.577L36.9749 133.11Z" stroke="#074BB3" stroke-width="1.00396" stroke-linejoin="round"/>
<path d="M74.6176 88.0618C74.6176 88.0618 74.1695 92.0149 75.2852 94.5537C76.4009 97.0925 82.5941 105.693 82.5941 105.693L71.0334 114.961C71.0334 114.961 66.2369 105.297 65.3233 103.734C64.4097 102.17 63.3116 95.441 66.2896 90.6181C69.2677 85.7953 73.5546 84.4952 74.6176 88.0618Z" fill="white"/>
<g style="mix-blend-mode:multiply" opacity="0.5">
<path d="M68.6789 100.765L73.6949 111.166L71.0244 114.969L65.9819 105.965L68.6789 100.765Z" fill="#074BB3"/>
</g>
<path d="M74.6176 88.0618C74.6176 88.0618 74.1695 92.0149 75.2852 94.5537C76.4009 97.0925 82.5941 105.693 82.5941 105.693L71.0334 114.961C71.0334 114.961 66.2369 105.297 65.3233 103.734C64.4097 102.17 63.3116 95.441 66.2896 90.6181C69.2677 85.7953 73.5546 84.4952 74.6176 88.0618Z" stroke="#074BB3" stroke-width="1.00396" stroke-miterlimit="10"/>
<path d="M78.2014 80.8232C77.4898 76.4308 72.4562 67.4967 64.4708 67.8393C59.2878 68.0677 56.8632 69.1131 54.6144 70.3869C52.7812 71.4669 51.0725 72.7455 49.5192 74.1994C45.6188 78.8817 44.2483 80.1643 45.0038 83.7485C44.9419 85.1781 45.1659 86.6057 45.6627 87.9476C46.8574 91.1364 47.6744 93.2184 48.711 94.7382C48.3947 96.2228 47.569 100.141 47.5251 101.037C47.4811 101.933 50.1605 101.309 51.5133 100.967C54.0258 106.589 58.629 110.489 60.0609 110.937C62.5558 111.719 66.5001 107.617 68.5909 104.437C70.6817 101.256 69.1004 97.6811 69.1092 96.2579C69.118 94.8348 73.809 91.7074 75.5484 90.7148C77.2878 89.7221 78.9042 85.2067 78.2014 80.8232Z" fill="white"/>
<g style="mix-blend-mode:multiply" opacity="0.5">
<path d="M45.039 83.7484C44.977 85.178 45.201 86.6056 45.6978 87.9475C46.8926 91.1364 47.7095 93.2184 48.7461 94.7381C48.4299 96.2228 47.6041 100.141 47.5602 101.037C47.5163 101.933 50.1956 101.309 51.5485 100.967C54.0609 106.589 58.6641 110.489 60.096 110.937C62.5909 111.719 66.5353 107.617 68.626 104.437C69.1484 103.643 69.4875 102.742 69.6187 101.801C69.5045 101.388 69.4254 101.133 69.4254 101.133C69.4254 101.133 68.2483 105.658 65.9115 105.069C63.5748 104.48 59.9994 99.7982 58.0053 98.1818C56.0111 96.5654 56.8281 94.4395 56.4328 92.0324C56.0375 89.6254 50.1341 87.5083 49.7388 86.1291C49.3435 84.7499 50.7227 79.0398 50.7227 79.0398C50.7227 79.0398 52.9628 76.053 52.4797 77.2828C52.1382 78.3492 52.0143 79.4734 52.1154 80.5885C52.2165 81.7037 52.5405 82.7872 53.0682 83.7748C53.4385 84.554 54.026 85.2098 54.76 85.6633C55.4939 86.1168 56.3433 86.3487 57.2059 86.3311L59.3493 75.7104L54.8252 71.9681L49.5543 74.1643C45.6188 78.8817 44.2747 80.1642 45.039 83.7484Z" fill="#074BB3"/>
</g>
<path d="M78.2014 80.8232C77.4898 76.4308 72.4562 67.4967 64.4708 67.8393C59.2878 68.0677 56.8632 69.1131 54.6144 70.3869C52.7812 71.4669 51.0725 72.7455 49.5192 74.1994C45.6188 78.8817 44.2483 80.1643 45.0038 83.7485C44.9419 85.1781 45.1659 86.6057 45.6627 87.9476C46.8574 91.1364 47.6744 93.2184 48.711 94.7382C48.3947 96.2228 47.569 100.141 47.5251 101.037C47.4811 101.933 50.1605 101.309 51.5133 100.967C54.0258 106.589 58.629 110.489 60.0609 110.937C62.5558 111.719 66.5001 107.617 68.5909 104.437C70.6817 101.256 69.1004 97.6811 69.1092 96.2579C69.118 94.8348 73.809 91.7074 75.5484 90.7148C77.2878 89.7221 78.9042 85.2067 78.2014 80.8232Z" stroke="#263238" stroke-miterlimit="10"/>
<path d="M49.8008 92.0852L50.6793 94.5976C50.6793 94.5976 52.568 95.2213 54.8696 92.7089" stroke="#263238" stroke-miterlimit="10" stroke-linecap="round"/>
<path d="M56.2925 103.822C56.2925 103.822 58.3833 103.611 59.2266 100.677" stroke="#263238" stroke-miterlimit="10" stroke-linecap="round"/>
<path d="M48.3335 89.9856C48.3335 89.9856 48.9572 88.0969 52.7259 88.0969" stroke="#263238" stroke-miterlimit="10" stroke-linecap="round"/>
<path d="M67.6513 64.343C64.9129 63.9492 62.1513 63.7379 59.3849 63.7105C59.3849 63.7105 51.1096 58.9403 43.1595 64.0267C35.2093 69.1131 39.0306 78.0208 39.0306 80.2434C39.0306 82.4659 36.483 82.4747 38.0731 85.3385C39.6631 88.2023 45.0394 86.6211 45.0394 86.6211C45.0962 85.5409 45.3816 84.4852 45.8768 83.5235C46.372 82.5619 47.0657 81.7164 47.912 81.0428C50.7758 78.8202 53.0599 78.3371 54.0086 78.9784C54.0086 78.9784 53.3761 83.7485 54.3249 85.6548C54.3249 85.6548 57.5049 87.2448 58.4625 87.2448C59.42 87.2448 57.8388 88.5889 61.0101 89.7836C61.5878 89.9911 62.2058 90.0618 62.8155 89.9902C63.4252 89.9185 64.01 89.7065 64.524 89.3707C64.9895 87.4381 66.0086 84.5303 67.9061 85.2067C70.6908 86.1994 73.2296 93.0515 69.461 95.3883C73.9939 96.214 79.4844 88.1935 79.8094 80.8846C80.1345 73.5757 72.3599 65.1687 67.6513 64.343Z" fill="#263238"/>
<path d="M54.1489 75.8421C54.1489 75.8421 56.4857 74.5859 59.3495 77.2741C62.2133 79.9622 67.7828 83.5551 75.162 81.5786" stroke="white" stroke-width="0.5" stroke-linecap="round" stroke-linejoin="round"/>
<path d="M53.8242 73.6899C53.8242 73.6899 55.4318 71.1775 58.12 71.1775C60.8081 71.1775 67.0892 74.9462 72.1053 74.9462" stroke="white" stroke-width="0.5" stroke-linecap="round" stroke-linejoin="round"/>
<path d="M51.9969 78.5303C51.9969 78.5303 48.9486 74.7704 46.0848 77.8187C43.2209 80.867 45.0394 83.7484 45.0394 83.7484" stroke="white" stroke-width="0.5" stroke-linecap="round" stroke-linejoin="round"/>
<path d="M39.8125 81.0427C41.5593 79.4674 42.6453 77.2893 42.852 74.9461C43.2122 71.0018 48.5972 67.5933 51.9969 70.8261" stroke="white" stroke-width="0.5" stroke-linecap="round" stroke-linejoin="round"/>
<path d="M45.3643 66.6972C45.3643 66.6972 50.7493 61.4966 55.2295 68.1291" stroke="white" stroke-width="0.5" stroke-linecap="round" stroke-linejoin="round"/>
<path d="M89.1915 322.395C89.1915 322.395 92.5033 327.543 92.1344 330.855L91.7742 334.166C91.7742 334.166 79.6249 337.496 77.051 337.496C74.477 337.496 60.8519 336.205 60.8519 336.205L60.2633 333.868C60.2221 333.695 60.2415 333.514 60.3183 333.354C60.3951 333.194 60.5246 333.065 60.685 332.989L72.8343 327.323L76.6644 323.133L89.1915 322.395Z" fill="white" stroke="#263238" stroke-width="1.00396" stroke-miterlimit="10"/>
<path d="M78.8957 334.904C82.19 335.159 88.4447 333.147 92.0728 331.865L91.8181 334.166C91.8181 334.166 79.6249 337.496 77.0509 337.496C74.477 337.496 60.8518 336.205 60.8518 336.205L60.4302 334.535C62.6088 334.544 74.5385 334.571 78.8957 334.904Z" fill="#92E3A9" stroke="#263238" stroke-width="1.00396" stroke-miterlimit="10"/>
<path d="M72.8518 327.323L55.1681 335.019C55.1681 335.019 53.6572 338.805 55.1681 339.56C56.6791 340.316 89.6219 339.56 89.6219 339.56C89.6219 339.56 91.8972 333.578 88.3042 329.563C84.7112 325.549 72.8518 327.323 72.8518 327.323Z" fill="white" stroke="#263238" stroke-width="1.00396" stroke-miterlimit="10"/>
<path d="M89.6218 339.56C89.6218 339.56 56.679 340.316 55.168 339.56C54.4389 339.191 54.4125 338.128 54.5795 337.118H90.2016C90.0852 337.949 89.8911 338.766 89.6218 339.56Z" fill="#074BB3" stroke="#263238" stroke-width="1.00396" stroke-miterlimit="10"/>
<path d="M64.4889 193.61C64.4889 193.61 59.8681 214.088 58.1199 226.896C56.3718 239.704 55.344 265.364 55.7129 268.307C56.0819 271.25 74.4771 320.559 74.4771 320.559L76.3132 324.951L89.1916 322.377C89.1916 322.377 83.3058 303.613 81.1008 293.309C78.8959 283.004 74.073 266.076 74.073 263.133C74.073 260.19 85.4932 203.985 86.3102 200.296C87.1272 196.606 90.8343 190.94 90.8343 190.94L66.1755 190.439L64.4889 193.61Z" fill="#074BB3" stroke="#263238" stroke-width="1.00396" stroke-miterlimit="10"/>
<path d="M64.4887 193.611C64.4887 193.611 61.783 212.313 62.8987 225.315C64.0143 238.316 66.4126 265.997 66.4126 270.117C66.4126 274.237 73.0626 298.843 73.4404 306.574C74.0289 317.739 73.2032 323.265 73.2032 323.265L72.8079 327.314C72.8079 327.314 80.5648 328.421 82.2602 328.904C84.2185 329.409 86.2394 329.628 88.2602 329.554C88.2602 329.554 91.0801 317.142 91.0801 306.565C91.0801 295.988 88.7346 274.219 87.5662 265.399C86.3979 256.58 90.0787 222.556 92.1694 216.205C94.2602 209.854 98.8283 196.404 95.7536 189.534C92.6789 182.665 64.4887 193.611 64.4887 193.611Z" fill="#074BB3" stroke="#263238" stroke-width="1.00396" stroke-miterlimit="10"/>
<path d="M99.1707 186.091L98.8895 194.454C98.8895 194.454 93.8822 195.447 87.1355 196.615C81.566 197.581 67.5807 196.36 62.8721 195.903C62.443 195.865 62.0463 195.659 61.7682 195.33C61.4902 195.001 61.3534 194.576 61.3875 194.146L61.8443 186.591L99.1707 186.091Z" fill="#263238"/>
<path d="M79.5987 102.724C79.5987 102.724 71.6924 111.271 68.7144 116.586C65.7364 121.901 64.5592 130.044 63.4435 136.457C62.3279 142.87 65.3498 157.927 64.4977 164.84L61.8008 186.618C61.8008 186.618 61.221 188.094 63.1624 189.71C65.1039 191.326 74.5826 191.915 83.1477 192.345C86.2751 192.504 95.6133 190.492 97.1418 190.395C98.9866 190.281 99.0481 187.936 99.1272 186.091C99.4962 177.42 101.06 154.308 102.088 144.24C104.205 123.71 92.6177 103.892 79.5987 102.724Z" fill="white" stroke="#263238" stroke-width="1.00396" stroke-miterlimit="10"/>
<g style="mix-blend-mode:multiply">
<path d="M101.121 155.915C101.472 151.356 101.824 147.218 102.131 144.24C102.219 143.362 102.272 142.483 102.316 141.605L81.3114 145.119L63.2676 138.969C63.2695 142.703 63.4807 146.434 63.9001 150.144L81.6013 155.098L101.121 155.915Z" fill="#074BB3"/>
</g>
<g style="mix-blend-mode:multiply">
<path d="M78.8165 103.584C77.6217 104.911 75.2499 107.608 72.9922 110.472L86.3274 124.027L90.7198 122.27L78.8165 103.584Z" fill="#074BB3"/>
</g>
<path d="M79.5986 102.724C79.5986 102.724 71.6923 111.271 68.7143 116.586C67.8312 118.201 67.1159 119.902 66.5796 121.663L82.48 103.295C81.5406 103.01 80.5755 102.819 79.5986 102.724Z" fill="#263238"/>
<g style="mix-blend-mode:multiply">
<path d="M64.0581 132.996L81.3113 138.671L102.263 136.264C101.935 131.044 100.775 125.911 98.8281 121.057L81.9351 127.83L66.8341 120.987C65.5993 124.912 64.6712 128.927 64.0581 132.996Z" fill="#074BB3"/>
</g>
<g style="mix-blend-mode:multiply">
<path d="M93.7598 177.42C85.0091 178.889 76.0302 178.156 67.634 175.285L63.4261 173.845L62.1172 184.386L66.9137 185.731C76.032 188.28 85.5621 189.014 94.9634 187.892L98.8374 187.426C99.039 186.999 99.1526 186.536 99.1712 186.064C99.2767 183.719 99.4611 180.31 99.6983 176.401L93.7598 177.42Z" fill="#074BB3"/>
</g>
<g style="mix-blend-mode:multiply">
<path d="M96.1048 163.066C87.3537 164.541 78.3726 163.804 69.979 160.922L64.6203 159.086C64.7532 161 64.7267 162.922 64.5412 164.832L63.9175 169.9L69.2586 171.394C78.3734 173.946 87.9006 174.683 97.2995 173.564L99.935 173.247C100.155 169.734 100.409 165.991 100.682 162.293L96.1048 163.066Z" fill="#074BB3"/>
</g>
<path d="M13.6877 125.917L30.6733 139.574L31.4054 138.663L14.4198 125.006L13.6877 125.917Z" fill="#263238"/>
<path d="M87.7768 112.202C87.7768 112.202 94.0052 116.445 94.1458 126.469C94.2073 130.861 93.7505 134.964 92.7402 142.158C91.73 149.353 85.4577 172.782 80.5734 175.628C75.689 178.474 68.1078 173.098 68.1078 173.098L31.4403 148.756L22.5765 141.596L18.1841 133.303L19.5633 130.668L30.3773 138.961L24.553 133.576L25.695 132.126L27.8034 133.593L33.9527 135.895L35.2968 144.679L37.1943 145.98L72.2718 158.797C72.2718 158.797 71.8325 139.918 72.1576 136.308C72.4826 132.697 72.9306 123.622 76.7959 117.043" fill="white"/>
<g style="mix-blend-mode:multiply" opacity="0.5">
<path d="M72.0258 144.53C72.0258 151.048 72.2455 158.797 72.2455 158.797L37.2031 146.032L35.3056 144.732L33.9615 135.947L27.8122 133.646L25.7126 132.152L24.5706 133.602L30.3773 138.961L19.5633 130.668L18.2544 133.259L22.6468 141.552L31.5106 148.756L33.7419 150.24L82.1898 165.851L72.0258 144.53Z" fill="#074BB3"/>
</g>
<path d="M87.7768 112.202C87.7768 112.202 94.0052 116.445 94.1458 126.469C94.2073 130.861 93.7505 134.964 92.7402 142.158C91.73 149.353 85.4577 172.782 80.5734 175.628C75.689 178.474 68.1078 173.098 68.1078 173.098L31.4403 148.756L22.5765 141.596L18.1841 133.303L19.5633 130.668L30.3773 138.961L24.553 133.576L25.695 132.126L27.8034 133.593L33.9527 135.895L35.2968 144.679L37.1943 145.98L72.2718 158.797C72.2718 158.797 71.8325 139.918 72.1576 136.308C72.4826 132.697 72.9306 123.622 76.7959 117.043" stroke="#263238" stroke-width="1.00396" stroke-miterlimit="10"/>
<path d="M72.272 158.797L85.66 168.46L89.13 162.31C89.13 162.31 91.5282 160.422 91.8796 158.999C92.231 157.575 91.7829 155.265 92.1431 153.842C92.5033 152.419 94.2954 151.084 94.4623 147.64C94.6292 144.196 94.4623 141.324 94.4623 141.324C94.4623 141.324 97.3613 129.403 97.045 124.22C96.7288 119.037 91.7302 109.874 87.7244 109.672C83.7186 109.47 78.5092 110.076 74.4682 116.191C70.4272 122.305 71.253 140.155 70.6205 141.271C69.988 142.387 70.8665 147.895 70.8665 147.895C70.5154 148.157 70.2241 148.49 70.012 148.873C69.8 149.257 69.672 149.681 69.6366 150.117C69.5663 151.549 71.1124 155.072 71.1124 155.072L72.272 158.797Z" fill="white" stroke="#263238" stroke-width="1.00396" stroke-miterlimit="10"/>
<g style="mix-blend-mode:multiply">
<path d="M70.9721 136.685C70.9996 138.218 70.8849 139.75 70.6295 141.262C70.0672 142.264 70.7085 146.788 70.8491 147.71C78.3792 150.049 86.3417 150.65 94.1374 149.467C94.3049 148.856 94.4051 148.229 94.4361 147.596C94.6118 144.161 94.4361 141.28 94.4361 141.28C94.4361 141.28 94.6909 140.217 95.0423 138.6C86.9686 139.114 78.863 138.469 70.9721 136.685Z" fill="#074BB3"/>
</g>
<g style="mix-blend-mode:multiply">
<path d="M73.9236 117.166C72.6674 119.687 71.9646 123.473 71.5605 127.312C79.5354 130.356 88.1338 131.402 96.6059 130.36C96.9439 128.329 97.0939 126.27 97.0539 124.211C96.9018 122.583 96.5172 120.986 95.9119 119.467C88.5143 119.64 81.1251 118.866 73.9236 117.166Z" fill="#074BB3"/>
</g>
<path d="M71.1123 155.168L72.2455 158.797L85.6335 168.46L89.1035 162.31C89.1035 162.31 91.5017 160.422 91.8531 158.999C91.9158 158.751 91.954 158.498 91.9673 158.243C84.9122 158.121 77.9024 157.088 71.1123 155.168Z" fill="#263238"/>
<path d="M80.8021 328.79C80.8021 328.79 81.1008 321.183 82.559 310.061C84.0173 298.94 80.5122 283.145 79.9236 280.509C79.335 277.874 80.2223 272.023 79.6337 269.968C79.0451 267.912 76.1989 259.145 77.8768 248.972C79.5546 238.799 80.9163 211.909 80.9163 211.909C80.9163 211.909 76.6908 208.474 75.4522 204.003C74.2135 199.531 75.1623 198.126 75.1623 198.126" stroke="#263238" stroke-width="1.00396" stroke-miterlimit="10"/>
<path d="M82.7609 198.539L81.1357 207.534" stroke="#263238" stroke-width="1.00396" stroke-miterlimit="10"/>
</svg>
