<svg width="428" height="345" viewBox="0 0 428 345" fill="none" xmlns="http://www.w3.org/2000/svg">
<path d="M280.484 56.8815C240.929 55.7341 203.255 45.0658 167.281 33.3938C131.307 21.7219 95.6741 8.79038 57.0666 2.60561C32.2349 -1.37232 3.83765 -1.93514 -16.1705 9.18783C-35.4243 19.8914 -41.6456 38.3681 -44.9905 55.5122C-47.507 68.4107 -48.9865 81.986 -42.0912 94.0614C-37.304 102.445 -28.8038 109.492 -22.9259 117.522C-2.47248 145.463 -16.9291 179.918 -39.0945 207.2C-49.4918 219.998 -61.5518 232.207 -69.575 245.83C-77.5982 259.454 -81.3098 275.064 -74.2902 288.961C-67.3325 302.736 -50.7517 313.082 -32.7907 320.359C3.68872 335.139 46.6758 339.369 88.594 341.765C181.385 347.068 274.671 344.772 367.708 342.473C402.139 341.622 436.721 340.759 470.593 336.311C489.402 333.841 508.822 329.921 522.477 320.456C539.812 308.441 544.109 288.097 532.493 273.031C513.009 247.761 459.136 241.485 445.518 214.365C438.021 199.438 445.72 182.81 456.613 168.966C479.983 139.267 519.154 113.212 521.218 79.2651C522.635 55.95 503.805 32.6007 474.689 21.5694C444.169 10.0064 401.849 11.4609 379.335 30.6016C356.151 50.311 315.408 57.8945 280.484 56.8815Z" fill="#F6F8FF"/>
</svg>
