<svg width="223" height="233" viewBox="0 0 223 233" fill="none" xmlns="http://www.w3.org/2000/svg">
<path fill-rule="evenodd" clip-rule="evenodd" d="M111.5 212.833C161.848 212.833 202.662 172.018 202.662 121.67C202.662 71.3227 161.848 30.5078 111.5 30.5078C61.1522 30.5078 20.3374 71.3227 20.3374 121.67C20.3374 172.018 61.1522 212.833 111.5 212.833Z" stroke="#4AE846" stroke-width="0.613889" stroke-dasharray="3.68 3.68"/>
<path fill-rule="evenodd" clip-rule="evenodd" d="M111.5 232.17C172.527 232.17 222 182.698 222 121.67C222 60.6428 172.527 11.1703 111.5 11.1703C50.4725 11.1703 1 60.6428 1 121.67C1 182.698 50.4725 232.17 111.5 232.17Z" stroke="#4AE846" stroke-width="0.613889" stroke-dasharray="3.68 3.68"/>
<path d="M185.455 156.874C185.458 144.009 175.67 133.255 162.862 132.05C150.053 130.846 138.432 139.587 136.037 152.227L59.4268 150.149L60.2678 163.31C60.2678 163.31 49.3436 188.517 106.758 195.233V220.709H173.131V178.351C180.758 173.885 185.448 165.712 185.455 156.874Z" fill="url(#paint0_linear_386_3)"/>
<path d="M62.8985 163.863C62.8985 163.863 52.4378 188.001 107.421 194.441V218.849H170.986V154.21L62.082 151.257L62.8985 163.863Z" fill="#BE7C5E"/>
<path d="M94.6671 63.1329C91.2168 68.5776 84.017 70.2136 78.5526 66.7948L44.4234 44.3049C38.9788 40.8546 37.3427 33.6549 40.7616 28.1904C44.2114 22.7532 51.4019 21.118 56.8639 24.5285L90.993 47.0183C96.442 50.4647 98.0837 57.6652 94.6671 63.1329Z" fill="url(#paint1_linear_386_3)"/>
<path d="M92.7764 61.9052C89.5692 66.966 82.877 68.4869 77.7975 65.3092L46.0625 44.3878C41.0016 41.1806 39.4808 34.4884 42.6585 29.4089C45.8657 24.3481 52.5579 22.8272 57.6374 26.0049L89.3662 46.914C94.4368 50.1197 95.9613 56.8215 92.7764 61.9052Z" fill="#BE7C5E"/>
<path d="M158.92 181.567C172.104 181.567 182.791 170.88 182.791 157.696C182.791 144.513 172.104 133.825 158.92 133.825C145.736 133.825 135.049 144.513 135.049 157.696C135.049 170.88 145.736 181.567 158.92 181.567Z" fill="#BE7C5E"/>
<path d="M154.623 0.252319H63.1778C61.1012 0.252319 59.4177 1.93576 59.4177 4.01239V175.122C59.4177 177.198 61.1012 178.882 63.1778 178.882H154.623C156.699 178.882 158.383 177.198 158.383 175.122V4.01239C158.383 1.93576 156.699 0.252319 154.623 0.252319Z" fill="url(#paint2_linear_386_3)"/>
<path d="M152.855 2.66797H64.9397C62.6274 2.66797 60.7529 4.54243 60.7529 6.85469V172.285C60.7529 174.598 62.6274 176.472 64.9397 176.472H152.855C155.167 176.472 157.041 174.598 157.041 172.285V6.85469C157.041 4.54243 155.167 2.66797 152.855 2.66797Z" fill="white"/>
<path d="M133.087 7.02661C132.512 10.8352 129.244 13.6545 125.392 13.6658H92.1379C88.2872 13.653 85.0212 10.834 84.4458 7.02661H66.8272C65.8572 7.02661 64.9265 7.41059 64.2403 8.09626C63.554 8.78193 63.1685 9.71224 63.1685 10.6823V168.452C63.1685 169.422 63.5524 170.352 64.2381 171.039C64.9238 171.725 65.8541 172.111 66.8242 172.111H150.97C151.94 172.111 152.871 171.727 153.557 171.041C154.243 170.355 154.629 169.425 154.629 168.455V10.6854C154.629 9.7153 154.245 8.78467 153.559 8.09843C152.873 7.41219 151.943 7.02661 150.973 7.02661H133.087Z" fill="#074BB3"/>
<path d="M119.149 9.10461H98.9183C98.5793 9.10461 98.3044 9.37946 98.3044 9.7185V9.83207C98.3044 10.1711 98.5793 10.446 98.9183 10.446H119.149C119.488 10.446 119.763 10.1711 119.763 9.83207V9.7185C119.763 9.37946 119.488 9.10461 119.149 9.10461Z" fill="#DBDBDB"/>
<path d="M124.321 10.6417C124.873 10.6417 125.321 10.194 125.321 9.64172C125.321 9.08944 124.873 8.64172 124.321 8.64172C123.769 8.64172 123.321 9.08944 123.321 9.64172C123.321 10.194 123.769 10.6417 124.321 10.6417Z" fill="#DBDBDB"/>
<path d="M174.35 161.908C167.422 163.51 162.668 158.992 161.065 152.067L145.147 92.9588C143.563 86.0073 147.89 79.0813 154.831 77.455C161.783 75.8712 168.709 80.1974 170.335 87.1391L183.325 147.773C184.927 154.701 181.275 160.305 174.35 161.908Z" fill="url(#paint3_linear_386_3)"/>
<path d="M168.549 88.586C167.198 82.7407 161.365 79.0969 155.52 80.4475C149.674 81.7981 146.031 87.6315 147.381 93.4769L162.019 156.828C163.369 162.673 169.203 166.317 175.048 164.966C180.893 163.616 184.537 157.782 183.186 151.937L168.549 88.586Z" fill="#BE7C5E"/>
<path d="M182.69 210.862H91.834V232.041H182.69V210.862Z" fill="url(#paint4_linear_386_3)"/>
<path d="M180.234 213.318H94.2896V229.893H180.234V213.318Z" fill="#4D8AF0"/>
<path d="M81.4195 126.542C78.011 131.921 70.8974 133.538 65.4983 130.16L42.6094 115.35C37.2295 111.942 35.6126 104.828 38.9906 99.4291C42.399 94.0492 49.5126 92.4323 54.9118 95.8103L77.8006 110.62C83.1805 114.029 84.7975 121.142 81.4195 126.542Z" fill="url(#paint5_linear_386_3)"/>
<path d="M75.6733 157.89C72.2345 163.319 65.0561 164.951 59.6079 161.542L45.4301 151.205C40.0008 147.766 38.3687 140.587 41.7775 135.139C45.2163 129.71 52.3947 128.078 57.8429 131.486L72.0207 141.827C77.4481 145.266 79.08 152.442 75.6733 157.89Z" fill="url(#paint6_linear_386_3)"/>
<g opacity="0.5">
<path opacity="0.5" d="M108.897 117.177C124.144 117.177 136.504 104.817 136.504 89.5701C136.504 74.3234 124.144 61.9635 108.897 61.9635C93.6504 61.9635 81.2905 74.3234 81.2905 89.5701C81.2905 104.817 93.6504 117.177 108.897 117.177Z" fill="url(#paint7_linear_386_3)"/>
</g>
<path d="M108.897 115.553C123.247 115.553 134.88 103.92 134.88 89.5701C134.88 75.2202 123.247 63.5873 108.897 63.5873C94.5472 63.5873 82.9143 75.2202 82.9143 89.5701C82.9143 103.92 94.5472 115.553 108.897 115.553Z" fill="#4AE846"/>
<path d="M97.62 86.1016L107.362 95.0337L121.166 74.7355L126.04 78.7963L107.362 103.155L93.5591 87.7284L97.62 86.1016Z" fill="white"/>
<path d="M74.5285 157.119C71.3213 162.18 64.6291 163.701 59.5496 160.523L46.3264 150.898C41.2655 147.69 39.7447 140.998 42.9224 135.919C46.1296 130.858 52.8218 129.337 57.9013 132.515L71.1214 142.159C76.1722 145.364 77.6931 152.043 74.5285 157.119Z" fill="#BE7C5E"/>
<path d="M80.1609 125.728C76.9536 130.789 70.2614 132.31 65.182 129.132L43.6467 115.197C38.5858 111.99 37.065 105.297 40.2427 100.218C43.4499 95.1571 50.1422 93.6363 55.2216 96.814L76.7568 110.749C81.8177 113.956 83.3386 120.649 80.1609 125.728Z" fill="#BE7C5E"/>
<path d="M87.3374 95.3406C83.9122 100.744 76.7665 102.368 71.3426 98.9748L42.3363 80.0885C36.9328 76.6633 35.3092 69.5175 38.7021 64.0936C42.1274 58.6901 49.2731 57.0665 54.697 60.4594L83.7032 79.3457C89.1067 82.771 90.7303 89.9167 87.3374 95.3406Z" fill="url(#paint8_linear_386_3)"/>
<path d="M85.7965 94.3585C82.5892 99.4193 75.897 100.94 70.8176 97.7625L43.6499 80.0733C38.589 76.8661 37.0682 70.1738 40.2459 65.0944C43.4531 60.0335 50.1453 58.5126 55.2248 61.6904L82.3894 79.3796C87.4513 82.5858 88.9736 89.2782 85.7965 94.3585Z" fill="#BE7C5E"/>
<defs>
<linearGradient id="paint0_linear_386_3" x1="122.446" y1="220.724" x2="122.446" y2="131.944" gradientUnits="userSpaceOnUse">
<stop stop-color="#808080" stop-opacity="0.25"/>
<stop offset="0.54" stop-color="#808080" stop-opacity="0.12"/>
<stop offset="1" stop-color="#808080" stop-opacity="0.1"/>
</linearGradient>
<linearGradient id="paint1_linear_386_3" x1="67.7113" y1="68.5843" x2="67.7113" y2="22.7452" gradientUnits="userSpaceOnUse">
<stop stop-color="#808080" stop-opacity="0.25"/>
<stop offset="0.54" stop-color="#808080" stop-opacity="0.12"/>
<stop offset="1" stop-color="#808080" stop-opacity="0.1"/>
</linearGradient>
<linearGradient id="paint2_linear_386_3" x1="108.9" y1="178.879" x2="108.9" y2="0.249253" gradientUnits="userSpaceOnUse">
<stop stop-color="#808080" stop-opacity="0.25"/>
<stop offset="0.54" stop-color="#808080" stop-opacity="0.12"/>
<stop offset="1" stop-color="#808080" stop-opacity="0.1"/>
</linearGradient>
<linearGradient id="paint3_linear_386_3" x1="164.258" y1="162.227" x2="164.258" y2="77.1235" gradientUnits="userSpaceOnUse">
<stop stop-color="#808080" stop-opacity="0.25"/>
<stop offset="0.54" stop-color="#808080" stop-opacity="0.12"/>
<stop offset="1" stop-color="#808080" stop-opacity="0.1"/>
</linearGradient>
<linearGradient id="paint4_linear_386_3" x1="137.268" y1="232.035" x2="137.268" y2="210.856" gradientUnits="userSpaceOnUse">
<stop stop-color="#808080" stop-opacity="0.25"/>
<stop offset="0.54" stop-color="#808080" stop-opacity="0.12"/>
<stop offset="1" stop-color="#808080" stop-opacity="0.1"/>
</linearGradient>
<linearGradient id="paint5_linear_386_3" x1="60.2004" y1="131.925" x2="60.2004" y2="94.0484" gradientUnits="userSpaceOnUse">
<stop stop-color="#808080" stop-opacity="0.25"/>
<stop offset="0.54" stop-color="#808080" stop-opacity="0.12"/>
<stop offset="1" stop-color="#808080" stop-opacity="0.1"/>
</linearGradient>
<linearGradient id="paint6_linear_386_3" x1="58.7269" y1="163.323" x2="58.7269" y2="129.703" gradientUnits="userSpaceOnUse">
<stop stop-color="#808080" stop-opacity="0.25"/>
<stop offset="0.54" stop-color="#808080" stop-opacity="0.12"/>
<stop offset="1" stop-color="#808080" stop-opacity="0.1"/>
</linearGradient>
<linearGradient id="paint7_linear_386_3" x1="108.897" y1="117.177" x2="108.897" y2="61.9604" gradientUnits="userSpaceOnUse">
<stop stop-color="#808080" stop-opacity="0.25"/>
<stop offset="0.54" stop-color="#808080" stop-opacity="0.12"/>
<stop offset="1" stop-color="#808080" stop-opacity="0.1"/>
</linearGradient>
<linearGradient id="paint8_linear_386_3" x1="63.0182" y1="100.758" x2="63.0182" y2="58.6976" gradientUnits="userSpaceOnUse">
<stop stop-color="#808080" stop-opacity="0.25"/>
<stop offset="0.54" stop-color="#808080" stop-opacity="0.12"/>
<stop offset="1" stop-color="#808080" stop-opacity="0.1"/>
</linearGradient>
</defs>
</svg>
